<?xml version="1.0" encoding="UTF-8"?><svg id="Layer_1" xmlns="http://www.w3.org/2000/svg" viewBox="0 0 151.34 176.09"><defs><style>.cls-1{fill:#00f2f5;}.cls-2{fill:none;stroke:#00f2f5;stroke-miterlimit:10;stroke-width:4px;}</style></defs><rect class="cls-2" x="2" y="2" width="147.34" height="172.09" rx="12" ry="12"/><g><path class="cls-1" d="m129.88,101.5L82.22,18.96c-2.91-5.05-10.2-5.05-13.11,0L21.45,101.5c-2.91,5.05.73,11.35,6.56,11.35h95.32c5.83,0,9.47-6.31,6.56-11.35Zm-49.42-.95c-1.34,1.04-2.94,1.57-4.79,1.57s-3.53-.52-4.87-1.57c-1.34-1.04-2.02-2.74-2.02-5.09s.67-4.17,2.02-5.17c1.34-.99,2.97-1.49,4.87-1.49s3.45.5,4.79,1.49c1.34.99,2.01,2.71,2.01,5.17s-.67,4.04-2.01,5.09Zm.02-18.47h-9.55l-1.99-38.23h13.54l-1.99,38.23Z"/><path class="cls-1" d="m8.51,126.87v33.99c0,3.49,2.86,6.35,6.35,6.35h121.63c3.49,0,6.35-2.86,6.35-6.35v-33.99H8.51Zm31.41,31.52c-.51.4-1.12.6-1.83.6s-1.35-.2-1.86-.6c-.51-.4-.77-1.05-.77-1.95s.26-1.6.77-1.97c.51-.38,1.13-.57,1.86-.57s1.32.19,1.83.57c.51.38.77,1.04.77,1.97s-.26,1.55-.77,1.95Zm5.37-14.39c-.26.61-.66,1.18-1.2,1.71-.53.52-1.2,1.08-2,1.65-.6.44-1.06.81-1.38,1.11-.32.3-.54.6-.65.89-.11.29-.17.65-.17,1.07v.9h-3.97v-1.11c0-.68.09-1.28.28-1.8.19-.52.49-1.02.91-1.5s.97-.96,1.66-1.46c.62-.44,1.12-.83,1.49-1.18s.65-.7.82-1.04c.17-.34.26-.74.26-1.17,0-.65-.24-1.14-.72-1.48-.48-.34-1.15-.51-2-.51s-1.71.13-2.55.4c-.84.27-1.7.62-2.57,1.06l-1.63-3.28c1-.56,2.08-1.01,3.25-1.35,1.17-.34,2.44-.52,3.83-.52,2.13,0,3.79.51,4.96,1.53,1.17,1.02,1.76,2.32,1.76,3.9,0,.84-.13,1.56-.4,2.18Zm9.25,14.39c-.51.4-1.12.6-1.83.6s-1.35-.2-1.86-.6c-.51-.4-.77-1.05-.77-1.95s.26-1.6.77-1.97c.51-.38,1.13-.57,1.86-.57s1.32.19,1.83.57c.51.38.77,1.04.77,1.97s-.26,1.55-.77,1.95Zm5.37-14.39c-.26.61-.66,1.18-1.2,1.71-.53.52-1.2,1.08-2,1.65-.6.44-1.06.81-1.38,1.11-.32.3-.54.6-.65.89-.11.29-.17.65-.17,1.07v.9h-3.97v-1.11c0-.68.09-1.28.28-1.8.19-.52.49-1.02.91-1.5s.97-.96,1.66-1.46c.62-.44,1.12-.83,1.49-1.18s.65-.7.82-1.04c.17-.34.26-.74.26-1.17,0-.65-.24-1.14-.72-1.48-.48-.34-1.15-.51-2-.51s-1.71.13-2.55.4c-.84.27-1.7.62-2.57,1.06l-1.63-3.28c1-.56,2.08-1.01,3.25-1.35,1.17-.34,2.44-.52,3.83-.52,2.13,0,3.79.51,4.96,1.53,1.17,1.02,1.76,2.32,1.76,3.9,0,.84-.13,1.56-.4,2.18Zm9.25,14.39c-.51.4-1.12.6-1.83.6s-1.35-.2-1.86-.6c-.51-.4-.77-1.05-.77-1.95s.26-1.6.77-1.97c.51-.38,1.13-.57,1.86-.57s1.32.19,1.83.57c.51.38.77,1.04.77,1.97s-.26,1.55-.77,1.95Zm5.37-14.39c-.26.61-.66,1.18-1.2,1.71-.53.52-1.2,1.08-2,1.65-.6.44-1.06.81-1.38,1.11-.32.3-.54.6-.65.89-.11.29-.17.65-.17,1.07v.9h-3.97v-1.11c0-.68.09-1.28.28-1.8.19-.52.49-1.02.91-1.5s.97-.96,1.66-1.46c.62-.44,1.12-.83,1.49-1.18s.65-.7.82-1.04c.17-.34.26-.74.26-1.17,0-.65-.24-1.14-.72-1.48-.48-.34-1.15-.51-2-.51s-1.71.13-2.55.4c-.84.27-1.7.62-2.57,1.06l-1.63-3.28c1-.56,2.08-1.01,3.25-1.35,1.17-.34,2.44-.52,3.83-.52,2.13,0,3.79.51,4.96,1.53,1.17,1.02,1.76,2.32,1.76,3.9,0,.84-.13,1.56-.4,2.18Zm9.25,14.39c-.51.4-1.12.6-1.83.6s-1.35-.2-1.86-.6c-.51-.4-.77-1.05-.77-1.95s.26-1.6.77-1.97c.51-.38,1.13-.57,1.86-.57s1.32.19,1.83.57c.51.38.77,1.04.77,1.97s-.26,1.55-.77,1.95Zm5.37-14.39c-.26.61-.66,1.18-1.2,1.71-.53.52-1.2,1.08-2,1.65-.6.44-1.06.81-1.38,1.11-.32.3-.54.6-.65.89-.11.29-.17.65-.17,1.07v.9h-3.97v-1.11c0-.68.09-1.28.28-1.8.19-.52.49-1.02.91-1.5s.97-.96,1.66-1.46c.62-.44,1.12-.83,1.49-1.18s.65-.7.82-1.04c.17-.34.26-.74.26-1.17,0-.65-.24-1.14-.72-1.48-.48-.34-1.15-.51-2-.51s-1.71.13-2.55.4c-.84.27-1.7.62-2.57,1.06l-1.63-3.28c1-.56,2.08-1.01,3.25-1.35,1.17-.34,2.44-.52,3.83-.52,2.13,0,3.79.51,4.96,1.53,1.17,1.02,1.76,2.32,1.76,3.9,0,.84-.13,1.56-.4,2.18Zm9.25,14.39c-.51.4-1.12.6-1.83.6s-1.35-.2-1.86-.6c-.51-.4-.77-1.05-.77-1.95s.26-1.6.77-1.97c.51-.38,1.13-.57,1.86-.57s1.32.19,1.83.57c.51.38.77,1.04.77,1.97s-.26,1.55-.77,1.95Zm5.37-14.39c-.26.61-.66,1.18-1.2,1.71-.53.52-1.2,1.08-2,1.65-.6.44-1.06.81-1.38,1.11-.32.3-.54.6-.65.89-.11.29-.17.65-.17,1.07v.9h-3.97v-1.11c0-.68.09-1.28.28-1.8.19-.52.49-1.02.91-1.5s.97-.96,1.66-1.46c.62-.44,1.12-.83,1.49-1.18s.65-.7.82-1.04c.17-.34.26-.74.26-1.17,0-.65-.24-1.14-.72-1.48-.48-.34-1.15-.51-2-.51s-1.71.13-2.55.4c-.84.27-1.7.62-2.57,1.06l-1.63-3.28c1-.56,2.08-1.01,3.25-1.35,1.17-.34,2.44-.52,3.83-.52,2.13,0,3.79.51,4.96,1.53,1.17,1.02,1.76,2.32,1.76,3.9,0,.84-.13,1.56-.4,2.18Zm9.25,14.39c-.51.4-1.12.6-1.83.6s-1.35-.2-1.86-.6c-.51-.4-.77-1.05-.77-1.95s.26-1.6.77-1.97c.51-.38,1.13-.57,1.86-.57s1.32.19,1.83.57c.51.38.77,1.04.77,1.97s-.26,1.55-.77,1.95Zm5.37-14.39c-.26.61-.66,1.18-1.2,1.71-.53.52-1.2,1.08-2,1.65-.6.44-1.06.81-1.38,1.11-.32.3-.54.6-.65.89-.11.29-.17.65-.17,1.07v.9h-3.97v-1.11c0-.68.09-1.28.28-1.8.19-.52.49-1.02.91-1.5s.97-.96,1.66-1.46c.62-.44,1.12-.83,1.49-1.18s.65-.7.82-1.04c.17-.34.26-.74.26-1.17,0-.65-.24-1.14-.72-1.48-.48-.34-1.15-.51-2-.51s-1.71.13-2.55.4c-.84.27-1.7.62-2.57,1.06l-1.63-3.28c1-.56,2.08-1.01,3.25-1.35,1.17-.34,2.44-.52,3.83-.52,2.13,0,3.79.51,4.96,1.53,1.17,1.02,1.76,2.32,1.76,3.9,0,.84-.13,1.56-.4,2.18Z"/></g></svg>