<?xml version="1.0" encoding="UTF-8"?><svg id="Layer_1" xmlns="http://www.w3.org/2000/svg" viewBox="0 0 237.21 237.21"><defs><style>.cls-1{fill:none;}.cls-1,.cls-2{stroke:#00f2f5;stroke-miterlimit:10;stroke-width:2px;}.cls-2{fill:#00f2f5;}</style></defs><polygon class="cls-2" points="-6.22 118.81 -.35 124.68 -.35 112.94 -6.22 118.81"/><polygon class="cls-2" points="241.71 118.46 237.56 114.31 237.56 122.61 241.71 118.46"/><g><g><polyline class="cls-1" points="49.44 18.74 17.53 18.74 17.53 50.65"/><polyline class="cls-1" points="219.68 52.04 219.68 18.74 186.38 18.74"/><polyline class="cls-1" points="17.53 185.17 17.53 218.46 50.82 218.46"/><polyline class="cls-1" points="187.77 218.46 219.68 218.46 219.68 186.55"/></g><g><polygon class="cls-2" points="5.94 118.43 1 113.5 1 123.37 5.94 118.43"/><polygon class="cls-2" points="231.27 118.77 236.21 123.71 236.21 113.84 231.27 118.77"/><polygon class="cls-2" points="118.43 5.94 123.37 1 113.5 1 118.43 5.94"/><polygon class="cls-2" points="118.77 231.27 113.84 236.21 123.71 236.21 118.77 231.27"/></g></g></svg>