<?xml version="1.0" encoding="UTF-8"?><svg id="Layer_1" xmlns="http://www.w3.org/2000/svg" viewBox="0 0 141.34 141.34"><defs><style>.cls-1{fill:none;}.cls-1,.cls-2{stroke:#00f2f5;stroke-miterlimit:10;stroke-width:2px;}.cls-2{fill:#00f2f5;}</style></defs><g><g><polyline class="cls-1" points="29.69 11.51 10.79 11.51 10.79 30.41"/><polyline class="cls-1" points="130.55 31.24 130.55 11.51 110.82 11.51"/><polyline class="cls-1" points="10.79 110.1 10.79 129.83 30.52 129.83"/><polyline class="cls-1" points="111.65 129.83 130.55 129.83 130.55 110.92"/></g><g><polygon class="cls-2" points="3.92 70.57 1 67.64 1 73.49 3.92 70.57"/><polygon class="cls-2" points="137.41 70.77 140.34 73.7 140.34 67.85 137.41 70.77"/><polygon class="cls-2" points="70.57 3.92 73.49 1 67.64 1 70.57 3.92"/><polygon class="cls-2" points="70.77 137.41 67.85 140.34 73.7 140.34 70.77 137.41"/></g></g><polygon class="cls-2" points="-4.51 70.81 -.35 74.97 -.35 66.66 -4.51 70.81"/></svg>