<?xml version="1.0" encoding="UTF-8"?><svg id="Layer_1" xmlns="http://www.w3.org/2000/svg" viewBox="0 0 199.9 199.9"><defs><style>.cls-1{fill:none;}.cls-1,.cls-2{stroke:#00f2f5;stroke-miterlimit:10;stroke-width:2px;}.cls-2{fill:#00f2f5;}</style></defs><polygon class="cls-2" points="203.18 99.85 200.26 96.93 200.26 102.78 203.18 99.85"/><g><g><polyline class="cls-1" points="41.75 15.93 14.91 15.93 14.91 42.78"/><polyline class="cls-1" points="185 43.95 185 15.93 156.98 15.93"/><polyline class="cls-1" points="14.91 155.96 14.91 183.97 42.92 183.97"/><polyline class="cls-1" points="158.15 183.97 185 183.97 185 157.13"/></g><g><polygon class="cls-2" points="5.15 99.81 1 95.65 1 103.96 5.15 99.81"/><polygon class="cls-2" points="194.75 100.09 198.9 104.25 198.9 95.94 194.75 100.09"/><polygon class="cls-2" points="99.81 5.15 103.96 1 95.65 1 99.81 5.15"/><polygon class="cls-2" points="100.09 194.75 95.94 198.9 104.25 198.9 100.09 194.75"/></g></g><polygon class="cls-2" points="-5.29 100.12 -.35 105.06 -.35 95.18 -5.29 100.12"/></svg>