<?xml version="1.0" encoding="UTF-8"?><svg id="Layer_1" xmlns="http://www.w3.org/2000/svg" viewBox="0 0 281.69 281.69"><defs><style>.cls-1{fill:none;}.cls-1,.cls-2{stroke:#00f2f5;stroke-miterlimit:10;stroke-width:2px;}.cls-2{fill:#00f2f5;}</style></defs><g><g><polyline class="cls-1" points="58.6 22.1 20.65 22.1 20.65 60.04"/><polyline class="cls-1" points="261.04 61.7 261.04 22.1 221.45 22.1"/><polyline class="cls-1" points="20.65 220 20.65 259.59 60.25 259.59"/><polyline class="cls-1" points="223.1 259.59 261.04 259.59 261.04 221.65"/></g><g><polygon class="cls-2" points="6.87 140.64 1 134.77 1 146.52 6.87 140.64"/><polygon class="cls-2" points="274.82 141.05 280.69 146.92 280.69 135.18 274.82 141.05"/><polygon class="cls-2" points="140.64 6.87 146.52 1 134.77 1 140.64 6.87"/><polygon class="cls-2" points="141.05 274.82 135.18 280.69 146.92 280.69 141.05 274.82"/></g></g><polygon class="cls-2" points="286.98 140.68 282.05 135.74 282.05 145.61 286.98 140.68"/></svg>