<svg width="140" height="150" viewBox="0 0 140 150" fill="none" xmlns="http://www.w3.org/2000/svg">
    <path d="M70 0C83.2548 0 94 10.7452 94 24V30.418C106.033 30.8125 116.881 31.4168 124.687 31.9196C131.9 32.3841 137.627 37.9306 138.158 45.0016C138.983 55.9923 140 72.9962 140 90C140 107.004 138.983 124.008 138.158 134.998C137.627 142.069 131.9 147.616 124.687 148.08C111.9 148.904 90.9502 150 70 150C49.0498 150 28.0997 148.904 15.313 148.08C8.10037 147.616 2.37255 142.069 1.84198 134.998C1.0173 124.008 0 107.004 0 90C0 72.9962 1.0173 55.9923 1.84198 45.0016C2.37255 37.9306 8.10037 32.3841 15.313 31.9196C23.1188 31.4168 33.9669 30.8125 46 30.418V24C46 10.7452 56.7452 0 70 0Z" fill="none" fill-opacity="0.5"/>
</svg>
