<svg width="140" height="131" viewBox="0 -15 140 131" fill="none" xmlns="http://www.w3.org/2000/svg">
    <path fill-rule="evenodd" clip-rule="evenodd" d="M48.7793 33.2185C48.0714 32.7881 47.1487 33.0131 46.7183 33.7209C46.2879 34.4288 46.5129 35.3515 47.2207 35.7819L51.2287 38.2188C51.9366 38.6492 52.8593 38.4243 53.2897 37.7164C53.7201 37.0086 53.4951 36.0858 52.7873 35.6555L48.7793 33.2185ZM94.7793 35.7819C95.4871 35.3515 95.7121 34.4288 95.2817 33.7209C94.8513 33.0131 93.9286 32.7881 93.2207 33.2185L89.2127 35.6555C88.5049 36.0858 88.2799 37.0086 88.7103 37.7164C89.1407 38.4243 90.0634 38.6492 90.7713 38.2188L94.7793 35.7819ZM37.5 54.0002C36.6716 54.0002 36 54.6717 36 55.5002C36 56.3286 36.6716 57.0002 37.5 57.0002H45.5C46.3284 57.0002 47 56.3286 47 55.5002C47 54.6717 46.3284 54.0002 45.5 54.0002H37.5ZM94.5 54.0002C93.6716 54.0002 93 54.6717 93 55.5002C93 56.3286 93.6716 57.0002 94.5 57.0002H102.5C103.328 57.0002 104 56.3286 104 55.5002C104 54.6717 103.328 54.0002 102.5 54.0002H94.5ZM52.0607 74.0609C52.6464 73.4751 52.6464 72.5253 52.0607 71.9396C51.4749 71.3538 50.5251 71.3538 49.9393 71.9396L47.9393 73.9396C47.3536 74.5253 47.3536 75.4751 47.9393 76.0609C48.5251 76.6467 49.4749 76.6467 50.0607 76.0609L52.0607 74.0609ZM92.0607 71.9396C91.4749 71.3538 90.5251 71.3538 89.9393 71.9396C89.3536 72.5253 89.3536 73.4751 89.9393 74.0609L91.9393 76.0609C92.5251 76.6467 93.4749 76.6467 94.0607 76.0609C94.6464 75.4751 94.6464 74.5253 94.0607 73.9396L92.0607 71.9396ZM79.336 68.5455C83.3915 65.6395 86.0339 60.8869 86.0339 55.5172C86.0339 46.6713 78.8629 39.5002 70.0169 39.5002C61.171 39.5002 54 46.6713 54 55.5172C54 61.3444 57.1119 66.4449 61.7646 69.2473L63.1628 76.1C63.4478 77.4969 64.6765 78.5002 66.1022 78.5002H74.9254C76.3539 78.5002 77.5842 77.493 77.8663 76.0926L79.2764 69.0926C79.3134 68.9085 79.3329 68.7256 79.336 68.5455ZM65.5 80.5002C64.6716 80.5002 64 81.1718 64 82.0002C64 82.8286 64.6716 83.5002 65.5 83.5002H75.5C76.3284 83.5002 77 82.8286 77 82.0002C77 81.1718 76.3284 80.5002 75.5 80.5002H65.5ZM66.5833 84.5002C65.7549 84.5002 65.0833 85.1718 65.0833 86.0002C65.0833 86.8286 65.7549 87.5002 66.5833 87.5002H74.4167C75.2451 87.5002 75.9167 86.8286 75.9167 86.0002C75.9167 85.1718 75.2451 84.5002 74.4167 84.5002H66.5833Z" fill="currentColor"/>
</svg>
