<svg width="140" height="120" viewBox="0 0 140 120" fill="none" xmlns="http://www.w3.org/2000/svg">
<path
    fill="none"
    fill-rule="evenodd"
    clip-rule="evenodd"
    d="M1.84198 15.0016C2.37255 7.93063 8.10037
        2.38415 15.313 1.91956C28.0997 1.09593 49.0498
        0 70 0C90.9502 0 111.9 1.09593 124.687 1.91956C131.9
        2.38415 137.627 7.93062 138.158 15.0016C138.983 25.9923
        140 42.9962 140 60C140 77.0038 138.983 94.0077 138.158
        104.998C137.627 112.069 131.9 117.616 124.687 118.08C111.9
        118.904 90.9502 120 70 120C49.0498 120 28.0997 118.904
        15.313 118.08C8.10037 117.616 2.37255 112.069 1.84198
        104.998C1.0173 94.0077 0 77.0038 0 60C0 42.9962 1.0173 25.9923 1.84198 15.0016Z"
    />
</svg>