<svg width="20" height="29" viewBox="0 0 20 29" fill="none" xmlns="http://www.w3.org/2000/svg">
    <path fill-rule="evenodd" clip-rule="evenodd" d="M0 13.2052C0 12.1498 0.506818 11.2128 1.29034 10.6243V8.79457C1.29034 3.95134 5.176 0 10 0C14.824 0 18.7097 3.95134 18.7097 8.79457V10.6243C19.4932 11.2129 20 12.1499 20 13.2052V24.8181C20 26.5997 18.5558 28.0439 16.7742 28.0439H3.22581C1.44424 28.0439 0 26.5997 0 24.8181V13.2052ZM10 3.08337C6.90352 3.08337 4.37037 5.56745 4.37037 8.65955V9.97941H15.6296V8.65955C15.6296 5.56745 13.0965 3.08337 10 3.08337ZM11.4629 19.9081C12.3244 19.4045 12.9031 18.4698 12.9031 17.3999C12.9031 15.7965 11.6033 14.4967 9.99986 14.4967C8.39645 14.4967 7.09663 15.7965 7.09663 17.3999C7.09663 18.4698 7.67535 19.4045 8.53683 19.9081C8.40857 20.2869 8.38695 20.7591 8.38695 21.2712C8.38695 22.5183 8.51521 23.5292 9.99985 23.5292C11.4845 23.5292 11.6128 22.5183 11.6128 21.2712C11.6128 20.7591 11.5911 20.2869 11.4629 19.9081Z" fill="white" fill-opacity="0.7"/>
</svg>
