<svg width="46" height="38" viewBox="0 0 46 38" fill="none" xmlns="http://www.w3.org/2000/svg">
  <path fill-rule="evenodd" clip-rule="evenodd" d="M8.77506 13.5975L1.58948 12.552C0.414536 12.3815 -0.417772 13.671 0.221718 14.672L8.44491 27.5346C8.89991 28.2473 9.88203 28.3915 10.5215 27.8369L22.0739 17.8499C22.9728 17.0734 22.5414 15.601 21.3665 15.4291L14.3543 14.41C16.2381 9.248 21.182 5.54603 26.9901 5.54603C34.4129 5.54603 40.4513 11.5815 40.4513 19.0007C40.4513 26.4199 34.4129 32.454 26.9901 32.454C25.4587 32.454 24.2157 33.6963 24.2157 35.227C24.2157 36.7591 25.4587 38 26.9901 38C37.473 38 46 29.4771 46 19.0007C46 8.52286 37.473 0 26.9901 0C18.3868 0 11.1097 5.74707 8.77506 13.5975Z" fill="white"/>
</svg>
