<svg width="26" height="26" viewBox="0 0 26 26" fill="none" xmlns="http://www.w3.org/2000/svg">
    <path d="M11.1927 1.81318C11.9153 0.288612 14.0847 0.288609 14.8073 1.81317L17.1216 6.69615C17.4132 7.3113 17.9976 7.73591 18.6727 7.8231L24.0319 8.51523C25.7051 8.73133 26.3755 10.7946 25.1488 11.9529L21.22 15.6629C20.7251 16.1302 20.5018 16.8173 20.6275 17.4863L21.6254 22.7971C21.9369 24.4552 20.1818 25.7303 18.7011 24.9216L13.9586 22.3316C13.3612 22.0053 12.6388 22.0053 12.0414 22.3316L7.29889 24.9216C5.81819 25.7303 4.0631 24.4552 4.37464 22.7971L5.37245 17.4863C5.49815 16.8173 5.27492 16.1302 4.77998 15.6629L0.85116 11.9529C-0.375498 10.7946 0.294884 8.73133 1.96812 8.51523L7.32727 7.8231C8.00241 7.73591 8.58683 7.3113 8.87839 6.69615L11.1927 1.81318Z" fill="white" fill-opacity="0.7"/>
</svg>
