<?xml version="1.0" encoding="UTF-8"?><svg id="Layer_1" xmlns="http://www.w3.org/2000/svg" xmlns:xlink="http://www.w3.org/1999/xlink" viewBox="0 0 161.92 165.48"><defs><style>.cls-1{fill:#fff;}.cls-2{fill:#41d1bb;}.cls-3{fill:#5be3cc;}.cls-4{fill:url(#radial-gradient);}.cls-5{fill:#002c59;}.cls-6{fill:url(#linear-gradient);}.cls-7{fill:#231f20;}</style><linearGradient id="linear-gradient" x1="80.96" y1="5599.21" x2="80.96" y2="5441.94" gradientTransform="translate(0 5589.84) scale(1 -1)" gradientUnits="userSpaceOnUse"><stop offset="0" stop-color="#020236"/><stop offset="1" stop-color="#000014"/></linearGradient><radialGradient id="radial-gradient" cx="81.9" cy="80.61" fx="81.9" fy="80.61" r="51.91" gradientUnits="userSpaceOnUse"><stop offset="0" stop-color="#5e1d40" stop-opacity=".5"/><stop offset=".35" stop-color="#5f1d40" stop-opacity=".5"/><stop offset=".5" stop-color="#642140" stop-opacity=".52"/><stop offset=".6" stop-color="#6e2641" stop-opacity=".55"/><stop offset=".69" stop-color="#7c2e42" stop-opacity=".59"/><stop offset=".76" stop-color="#8d3943" stop-opacity=".65"/><stop offset=".83" stop-color="#a34545" stop-opacity=".72"/><stop offset=".89" stop-color="#bd5547" stop-opacity=".8"/><stop offset=".94" stop-color="#da664a" stop-opacity=".89"/><stop offset="1" stop-color="#fb794c" stop-opacity=".99"/><stop offset="1" stop-color="#ff7c4d"/></radialGradient></defs><g><ellipse class="cls-2" cx="80.96" cy="82.74" rx="80.96" ry="82.74"/><circle class="cls-1" cx="80.96" cy="80.96" r="70.28"/><circle class="cls-6" cx="80.96" cy="80.96" r="70.28"/><path class="cls-3" d="m80.96,0C36.25,0,0,36.28,0,81.03s36.25,81.03,80.96,81.03,80.96-36.28,80.96-81.03S125.67,0,80.96,0Zm0,151.24c-38.82,0-70.28-31.47-70.28-70.28S42.14,10.68,80.96,10.68s70.28,31.47,70.28,70.28-31.47,70.28-70.28,70.28Z"/></g><g><g><polygon class="cls-5" points="61.16 85.9 59.27 87.35 59.39 89.73 57.43 88.38 55.21 89.23 55.88 86.95 54.38 85.1 56.76 85.04 58.06 83.04 58.86 85.28 61.16 85.9"/><polygon class="cls-5" points="96.48 30.89 94.59 32.34 94.72 34.72 92.76 33.37 90.53 34.22 91.21 31.94 89.71 30.09 92.09 30.02 93.38 28.03 94.18 30.27 96.48 30.89"/><polygon class="cls-5" points="143.13 98.3 141.25 99.75 141.37 102.13 139.41 100.78 137.18 101.64 137.86 99.36 136.36 97.51 138.74 97.44 140.04 95.44 140.83 97.69 143.13 98.3"/><polygon class="cls-5" points="57.65 126.62 55.76 128.07 55.89 130.45 53.92 129.1 51.7 129.95 52.38 127.67 50.88 125.82 53.26 125.75 54.55 123.76 55.35 126 57.65 126.62"/><polygon class="cls-5" points="30.41 59.47 28.53 60.92 28.65 63.3 26.69 61.95 24.47 62.81 25.14 60.52 23.64 58.67 26.02 58.61 27.32 56.61 28.11 58.86 30.41 59.47"/><polygon class="cls-5" points="111.73 120.39 108.84 122.61 109.03 126.26 106.02 124.19 102.62 125.5 103.65 122 101.35 119.16 105 119.07 106.99 116 108.21 119.44 111.73 120.39"/><polygon class="cls-5" points="119.82 62.95 116.93 65.17 117.12 68.82 114.11 66.75 110.71 68.06 111.74 64.56 109.44 61.73 113.09 61.63 115.08 58.57 116.3 62 119.82 62.95"/></g><g><circle class="cls-4" cx="81.9" cy="80.61" r="51.91"/><g><circle class="cls-1" cx="69.29" cy="41.41" r="17.32"/><circle class="cls-7" cx="75.22" cy="47.02" r="8.79"/></g><g><circle class="cls-1" cx="96.33" cy="77" r="17.32"/><circle class="cls-7" cx="101.58" cy="83.56" r="8.79"/></g></g></g></svg>