<?xml version="1.0" encoding="UTF-8"?><svg id="Layer_1" xmlns="http://www.w3.org/2000/svg" xmlns:xlink="http://www.w3.org/1999/xlink" viewBox="0 0 1024 576"><defs><style>.cls-1{stroke:url(#linear-gradient-2);}.cls-1,.cls-2,.cls-3,.cls-4,.cls-5,.cls-6,.cls-7,.cls-8,.cls-9,.cls-10,.cls-11,.cls-12,.cls-13,.cls-14,.cls-15,.cls-16,.cls-17,.cls-18,.cls-19,.cls-20,.cls-21,.cls-22,.cls-23,.cls-24,.cls-25,.cls-26,.cls-27,.cls-28,.cls-29,.cls-30,.cls-31,.cls-32,.cls-33,.cls-34,.cls-35,.cls-36,.cls-37,.cls-38,.cls-39,.cls-40,.cls-41,.cls-42,.cls-43,.cls-44,.cls-45,.cls-46,.cls-47,.cls-48,.cls-49,.cls-50,.cls-51,.cls-52,.cls-53,.cls-54{fill:none;stroke-miterlimit:10;}.cls-2{stroke:url(#linear-gradient-3);}.cls-3{stroke:url(#linear-gradient-28);}.cls-4{stroke:url(#linear-gradient-9);}.cls-5{stroke:url(#linear-gradient-37);}.cls-6{stroke:url(#linear-gradient-53);}.cls-7{stroke:url(#linear-gradient-22);}.cls-8{stroke:url(#linear-gradient-19);}.cls-9{stroke:url(#linear-gradient-26);}.cls-10{stroke:url(#linear-gradient-4);}.cls-11{stroke:url(#linear-gradient-6);}.cls-12{stroke:url(#linear-gradient-18);}.cls-55{fill:url(#radial-gradient-4);}.cls-13{stroke:url(#linear-gradient-50);}.cls-14{stroke:url(#linear-gradient-13);}.cls-15{stroke:url(#linear-gradient-29);}.cls-16{stroke:url(#linear-gradient-16);}.cls-17{stroke:url(#linear-gradient-17);}.cls-18{stroke:url(#linear-gradient-48);}.cls-19{stroke:url(#linear-gradient-55);}.cls-20{stroke:url(#linear-gradient-30);}.cls-21{stroke:url(#linear-gradient-52);}.cls-56{fill:url(#radial-gradient);}.cls-22{stroke:url(#linear-gradient-7);}.cls-23{stroke:url(#linear-gradient-39);}.cls-24{stroke:url(#linear-gradient-21);}.cls-25{stroke:url(#linear-gradient-12);}.cls-26{stroke:url(#linear-gradient-5);}.cls-27{stroke:url(#linear-gradient-38);}.cls-28{stroke:url(#linear-gradient-51);}.cls-29{stroke:url(#linear-gradient-54);}.cls-30{stroke:url(#linear-gradient-32);}.cls-31{stroke:url(#linear-gradient-36);}.cls-57{fill:url(#radial-gradient-2);}.cls-32{stroke:url(#linear-gradient-20);}.cls-33{stroke:url(#linear-gradient-24);}.cls-34{stroke:url(#linear-gradient-33);}.cls-35{stroke:url(#linear-gradient-31);}.cls-36{stroke:url(#linear-gradient-25);}.cls-58{fill:url(#radial-gradient-3);}.cls-59{fill:#002c59;}.cls-37{stroke:url(#linear-gradient-35);}.cls-38{stroke:url(#linear-gradient-46);}.cls-39{stroke:url(#linear-gradient-49);}.cls-40{stroke:url(#linear-gradient-27);}.cls-41{stroke:url(#linear-gradient-23);}.cls-42{stroke:url(#linear-gradient-14);}.cls-43{stroke:url(#linear-gradient-41);}.cls-44{stroke:url(#linear-gradient-44);}.cls-60{fill:url(#linear-gradient);}.cls-45{stroke:url(#linear-gradient-42);}.cls-46{stroke:url(#linear-gradient-34);}.cls-47{stroke:url(#linear-gradient-11);}.cls-48{stroke:url(#linear-gradient-8);}.cls-49{stroke:url(#linear-gradient-47);}.cls-50{stroke:url(#linear-gradient-40);}.cls-51{stroke:url(#linear-gradient-10);}.cls-52{stroke:url(#linear-gradient-15);}.cls-53{stroke:url(#linear-gradient-43);}.cls-54{stroke:url(#linear-gradient-45);}</style><linearGradient id="linear-gradient" x1="1020.71" y1="581.7" x2="3.29" y2="-5.7" gradientUnits="userSpaceOnUse"><stop offset="0" stop-color="#020236"/><stop offset=".27" stop-color="#010127"/><stop offset=".67" stop-color="#000019"/><stop offset="1" stop-color="#000014"/></linearGradient><radialGradient id="radial-gradient" cx="924.41" cy="35.65" fx="924.41" fy="35.65" r="92.01" gradientUnits="userSpaceOnUse"><stop offset="0" stop-color="#5e1d40" stop-opacity=".5"/><stop offset=".35" stop-color="#5f1d40" stop-opacity=".5"/><stop offset=".5" stop-color="#642140" stop-opacity=".52"/><stop offset=".6" stop-color="#6e2641" stop-opacity=".55"/><stop offset=".69" stop-color="#7c2e42" stop-opacity=".59"/><stop offset=".76" stop-color="#8d3943" stop-opacity=".65"/><stop offset=".83" stop-color="#a34545" stop-opacity=".72"/><stop offset=".89" stop-color="#bd5547" stop-opacity=".8"/><stop offset=".94" stop-color="#da664a" stop-opacity=".89"/><stop offset="1" stop-color="#fb794c" stop-opacity=".99"/><stop offset="1" stop-color="#ff7c4d"/></radialGradient><radialGradient id="radial-gradient-2" cx="176.64" cy="135.15" fx="176.64" fy="135.15" r="74.7" xlink:href="#radial-gradient"/><radialGradient id="radial-gradient-3" cx="829.96" cy="171.56" fx="829.96" fy="171.56" r="50.68" gradientUnits="userSpaceOnUse"><stop offset="0" stop-color="#5e1d40" stop-opacity=".5"/><stop offset=".35" stop-color="#5f1d40" stop-opacity=".5"/><stop offset=".5" stop-color="#642140" stop-opacity=".52"/><stop offset=".6" stop-color="#6e2641" stop-opacity=".55"/><stop offset=".69" stop-color="#7c2e42" stop-opacity=".59"/><stop offset=".76" stop-color="#8d3943" stop-opacity=".65"/><stop offset=".83" stop-color="#a34545" stop-opacity=".72"/><stop offset=".89" stop-color="#bd5547" stop-opacity=".8"/><stop offset=".94" stop-color="#da664a" stop-opacity=".89"/><stop offset="1" stop-color="#fb794c" stop-opacity=".99"/><stop offset="1" stop-color="#ff7c4d"/></radialGradient><radialGradient id="radial-gradient-4" cx="197.33" cy="529.94" fx="197.33" fy="529.94" r="50.68" xlink:href="#radial-gradient-3"/><linearGradient id="linear-gradient-2" x1="2056.11" y1="673.88" x2="2056.11" y2="-26.68" gradientTransform="translate(3030.77) rotate(-180) scale(1 -1)" gradientUnits="userSpaceOnUse"><stop offset="0" stop-color="#00f2f5" stop-opacity="0"/><stop offset=".51" stop-color="#00f2f5"/><stop offset="1" stop-color="#00f2f5" stop-opacity="0"/></linearGradient><linearGradient id="linear-gradient-3" x1="2077.63" y1="659.9" x2="2077.63" y2="-23.18" xlink:href="#linear-gradient-2"/><linearGradient id="linear-gradient-4" x1="2099.15" y1="645.91" x2="2099.15" y2="-14.23" xlink:href="#linear-gradient-2"/><linearGradient id="linear-gradient-5" x1="2120.68" y1="631.93" x2="2120.68" y2="-14.24" xlink:href="#linear-gradient-2"/><linearGradient id="linear-gradient-6" x1="1994.33" y1="34.66" x2="2117.53" y2="34.66" xlink:href="#linear-gradient-2"/><linearGradient id="linear-gradient-7" x1="1994.7" y1="62.78" x2="2109.68" y2="62.78" xlink:href="#linear-gradient-2"/><linearGradient id="linear-gradient-8" x1="1988.44" y1="89.72" x2="2102.86" y2="89.72" xlink:href="#linear-gradient-2"/><linearGradient id="linear-gradient-9" x1="1984.38" y1="116.9" x2="2097.06" y2="116.9" xlink:href="#linear-gradient-2"/><linearGradient id="linear-gradient-10" x1="1980.1" y1="144.02" x2="2092.29" y2="144.02" xlink:href="#linear-gradient-2"/><linearGradient id="linear-gradient-11" x1="1979.91" y1="171.42" x2="2088.53" y2="171.42" xlink:href="#linear-gradient-2"/><linearGradient id="linear-gradient-12" x1="1973.28" y1="198.42" x2="2085.79" y2="198.42" xlink:href="#linear-gradient-2"/><linearGradient id="linear-gradient-13" x1="1971" y1="225.72" x2="2084.07" y2="225.72" xlink:href="#linear-gradient-2"/><linearGradient id="linear-gradient-14" x1="1971.02" y1="253.07" x2="2083.38" y2="253.07" xlink:href="#linear-gradient-2"/><linearGradient id="linear-gradient-15" x1="1970.98" y1="280.42" x2="2083.74" y2="280.42" xlink:href="#linear-gradient-2"/><linearGradient id="linear-gradient-16" x1="1973.34" y1="307.71" x2="2085.12" y2="307.71" xlink:href="#linear-gradient-2"/><linearGradient id="linear-gradient-17" x1="1973.26" y1="335.11" x2="2087.53" y2="335.11" xlink:href="#linear-gradient-2"/><linearGradient id="linear-gradient-18" x1="1973.35" y1="362.62" x2="2090.96" y2="362.62" xlink:href="#linear-gradient-2"/><linearGradient id="linear-gradient-19" x1="1973.28" y1="390.29" x2="2095.4" y2="390.29" xlink:href="#linear-gradient-2"/><linearGradient id="linear-gradient-20" x1="1973.31" y1="418.16" x2="2100.87" y2="418.16" xlink:href="#linear-gradient-2"/><linearGradient id="linear-gradient-21" x1="1977.52" y1="445.67" x2="2107.36" y2="445.67" xlink:href="#linear-gradient-2"/><linearGradient id="linear-gradient-22" x1="1979.02" y1="473.76" x2="2114.87" y2="473.76" xlink:href="#linear-gradient-2"/><linearGradient id="linear-gradient-23" x1="1983.73" y1="501.54" x2="2123.4" y2="501.54" xlink:href="#linear-gradient-2"/><linearGradient id="linear-gradient-24" x1="1987.74" y1="529.7" x2="2132.96" y2="529.7" xlink:href="#linear-gradient-2"/><linearGradient id="linear-gradient-25" x1="1995.15" y1="557.38" x2="2143.53" y2="557.38" xlink:href="#linear-gradient-2"/><linearGradient id="linear-gradient-26" x1="2007.87" y1="583.9" x2="2155.12" y2="583.9" xlink:href="#linear-gradient-2"/><linearGradient id="linear-gradient-27" x1="2615.91" y1="673.88" x2="2615.91" y2="-26.68" gradientTransform="translate(-2566.57)" xlink:href="#linear-gradient-2"/><linearGradient id="linear-gradient-28" x1="2637.43" y1="659.9" x2="2637.43" y2="-23.18" gradientTransform="translate(-2566.57)" xlink:href="#linear-gradient-2"/><linearGradient id="linear-gradient-29" x1="2658.95" y1="645.91" x2="2658.95" y2="-14.23" gradientTransform="translate(-2566.57)" xlink:href="#linear-gradient-2"/><linearGradient id="linear-gradient-30" x1="2680.48" y1="631.93" x2="2680.48" y2="-14.24" gradientTransform="translate(-2566.57)" xlink:href="#linear-gradient-2"/><linearGradient id="linear-gradient-31" x1="2554.13" y1="34.66" x2="2677.33" y2="34.66" gradientTransform="translate(-2566.57)" xlink:href="#linear-gradient-2"/><linearGradient id="linear-gradient-32" x1="2554.5" y1="62.78" x2="2669.49" y2="62.78" gradientTransform="translate(-2566.57)" xlink:href="#linear-gradient-2"/><linearGradient id="linear-gradient-33" x1="2548.24" y1="89.72" x2="2662.66" y2="89.72" gradientTransform="translate(-2566.57)" xlink:href="#linear-gradient-2"/><linearGradient id="linear-gradient-34" x1="2544.18" y1="116.9" x2="2656.86" y2="116.9" gradientTransform="translate(-2566.57)" xlink:href="#linear-gradient-2"/><linearGradient id="linear-gradient-35" x1="2539.9" y1="144.02" x2="2652.09" y2="144.02" gradientTransform="translate(-2566.57)" xlink:href="#linear-gradient-2"/><linearGradient id="linear-gradient-36" x1="2539.71" y1="171.42" x2="2648.33" y2="171.42" gradientTransform="translate(-2566.57)" xlink:href="#linear-gradient-2"/><linearGradient id="linear-gradient-37" x1="2533.08" y1="198.42" x2="2645.59" y2="198.42" gradientTransform="translate(-2566.57)" xlink:href="#linear-gradient-2"/><linearGradient id="linear-gradient-38" x1="2530.8" y1="225.72" x2="2643.87" y2="225.72" gradientTransform="translate(-2566.57)" xlink:href="#linear-gradient-2"/><linearGradient id="linear-gradient-39" x1="2530.82" y1="253.07" x2="2643.18" y2="253.07" gradientTransform="translate(-2566.57)" xlink:href="#linear-gradient-2"/><linearGradient id="linear-gradient-40" x1="2530.78" y1="280.42" x2="2643.54" y2="280.42" gradientTransform="translate(-2566.57)" xlink:href="#linear-gradient-2"/><linearGradient id="linear-gradient-41" x1="2533.14" y1="307.71" x2="2644.92" y2="307.71" gradientTransform="translate(-2566.57)" xlink:href="#linear-gradient-2"/><linearGradient id="linear-gradient-42" x1="2533.06" y1="335.11" x2="2647.33" y2="335.11" gradientTransform="translate(-2566.57)" xlink:href="#linear-gradient-2"/><linearGradient id="linear-gradient-43" x1="2533.15" y1="362.62" x2="2650.76" y2="362.62" gradientTransform="translate(-2566.57)" xlink:href="#linear-gradient-2"/><linearGradient id="linear-gradient-44" x1="2533.08" y1="390.29" x2="2655.2" y2="390.29" gradientTransform="translate(-2566.57)" xlink:href="#linear-gradient-2"/><linearGradient id="linear-gradient-45" x1="2533.11" y1="418.16" x2="2660.67" y2="418.16" gradientTransform="translate(-2566.57)" xlink:href="#linear-gradient-2"/><linearGradient id="linear-gradient-46" x1="2537.32" y1="445.67" x2="2667.16" y2="445.67" gradientTransform="translate(-2566.57)" xlink:href="#linear-gradient-2"/><linearGradient id="linear-gradient-47" x1="2538.82" y1="473.76" x2="2674.67" y2="473.76" gradientTransform="translate(-2566.57)" xlink:href="#linear-gradient-2"/><linearGradient id="linear-gradient-48" x1="2543.53" y1="501.54" x2="2683.2" y2="501.54" gradientTransform="translate(-2566.57)" xlink:href="#linear-gradient-2"/><linearGradient id="linear-gradient-49" x1="2547.54" y1="529.7" x2="2692.76" y2="529.7" gradientTransform="translate(-2566.57)" xlink:href="#linear-gradient-2"/><linearGradient id="linear-gradient-50" x1="2554.95" y1="557.38" x2="2703.33" y2="557.38" gradientTransform="translate(-2566.57)" xlink:href="#linear-gradient-2"/><linearGradient id="linear-gradient-51" x1="2567.67" y1="583.9" x2="2714.92" y2="583.9" gradientTransform="translate(-2566.57)" xlink:href="#linear-gradient-2"/><linearGradient id="linear-gradient-52" x1="2056.11" y1="21.03" x2="2056.11" y2="-679.53" xlink:href="#linear-gradient-2"/><linearGradient id="linear-gradient-53" x1="2077.63" y1="7.04" x2="2077.63" y2="-676.03" xlink:href="#linear-gradient-2"/><linearGradient id="linear-gradient-54" x1="2615.91" y1="21.03" x2="2615.91" y2="-679.53" gradientTransform="translate(-2566.57)" xlink:href="#linear-gradient-2"/><linearGradient id="linear-gradient-55" x1="2637.43" y1="7.04" x2="2637.43" y2="-676.03" gradientTransform="translate(-2566.57)" xlink:href="#linear-gradient-2"/></defs><rect class="cls-60" width="1024" height="576"/><g><g><polygon class="cls-59" points="4.34 69.68 3.29 69.18 2.27 69.76 2.42 68.6 1.55 67.81 2.71 67.6 3.19 66.53 3.74 67.56 4.91 67.69 4.1 68.54 4.34 69.68"/><polygon class="cls-59" points="307.95 35.78 306.89 35.28 305.88 35.86 306.03 34.7 305.16 33.91 306.31 33.7 306.79 32.63 307.35 33.66 308.52 33.79 307.71 34.64 307.95 35.78"/><polygon class="cls-59" points="214.57 183.21 212.42 182.18 210.35 183.37 210.67 181.01 208.9 179.41 211.24 178.98 212.22 176.81 213.35 178.9 215.72 179.16 214.08 180.88 214.57 183.21"/><polygon class="cls-59" points="274 80.16 274.93 79.45 274.87 78.28 275.84 78.94 276.93 78.52 276.6 79.65 277.34 80.56 276.17 80.59 275.53 81.57 275.14 80.47 274 80.16"/><polygon class="cls-59" points="163.11 339.98 164.04 339.27 163.98 338.1 164.94 338.76 166.04 338.34 165.71 339.46 166.45 340.37 165.27 340.41 164.63 341.39 164.24 340.29 163.11 339.98"/><polygon class="cls-59" points="156.71 228.86 158.6 227.41 158.48 225.03 160.44 226.38 162.66 225.52 161.99 227.81 163.49 229.66 161.11 229.72 159.81 231.72 159.01 229.48 156.71 228.86"/><polygon class="cls-59" points="299.68 268.31 300.12 269.4 301.26 269.66 300.36 270.41 300.46 271.58 299.47 270.95 298.39 271.41 298.68 270.27 297.91 269.39 299.08 269.31 299.68 268.31"/><polygon class="cls-59" points="22.32 168.15 22.76 169.24 23.9 169.51 23 170.25 23.1 171.42 22.11 170.8 21.03 171.26 21.32 170.12 20.55 169.24 21.72 169.16 22.32 168.15"/><polygon class="cls-59" points="192.58 125.54 193.46 127.76 195.79 128.29 193.95 129.81 194.17 132.18 192.16 130.91 189.97 131.84 190.55 129.54 188.99 127.74 191.36 127.59 192.58 125.54"/><polygon class="cls-59" points="135.04 221.07 133.88 220.96 133.13 221.86 132.87 220.72 131.78 220.28 132.78 219.68 132.86 218.51 133.74 219.29 134.88 219 134.42 220.07 135.04 221.07"/><polygon class="cls-59" points="295.53 114.45 294.37 114.34 293.62 115.25 293.36 114.1 292.27 113.67 293.27 113.07 293.35 111.9 294.23 112.67 295.37 112.38 294.91 113.46 295.53 114.45"/><polygon class="cls-59" points="80.48 228.61 78.11 228.4 76.59 230.23 76.06 227.91 73.85 227.03 75.89 225.81 76.05 223.43 77.84 225 80.15 224.41 79.21 226.6 80.48 228.61"/><polygon class="cls-59" points="76.51 360.98 75.35 360.76 74.52 361.58 74.37 360.41 73.33 359.87 74.4 359.37 74.59 358.22 75.39 359.08 76.55 358.9 75.98 359.93 76.51 360.98"/><polygon class="cls-59" points="134.64 182.59 133.49 182.37 132.65 183.19 132.51 182.02 131.47 181.48 132.53 180.98 132.73 179.83 133.53 180.69 134.69 180.51 134.12 181.54 134.64 182.59"/><polygon class="cls-59" points="18.31 325.99 15.97 325.54 14.27 327.2 13.99 324.84 11.88 323.73 14.03 322.73 14.43 320.38 16.05 322.13 18.41 321.78 17.25 323.86 18.31 325.99"/><polygon class="cls-59" points="20 256.65 20.72 255.72 20.37 254.6 21.47 255 22.43 254.32 22.39 255.5 23.33 256.19 22.2 256.52 21.83 257.63 21.17 256.66 20 256.65"/><polygon class="cls-59" points="27.88 570.28 28.6 569.36 28.25 568.24 29.35 568.64 30.31 567.96 30.27 569.13 31.21 569.83 30.08 570.15 29.71 571.26 29.06 570.29 27.88 570.28"/><polygon class="cls-59" points="16.41 464.01 17.87 462.14 17.15 459.87 19.39 460.68 21.33 459.29 21.25 461.67 23.17 463.09 20.88 463.75 20.12 466.01 18.79 464.03 16.41 464.01"/><polygon class="cls-59" points="269.52 209.1 270.64 208.76 271 207.64 271.67 208.61 272.84 208.6 272.13 209.53 272.5 210.65 271.4 210.26 270.45 210.96 270.47 209.79 269.52 209.1"/><polygon class="cls-59" points="92.79 309.21 93.91 308.87 94.27 307.75 94.94 308.71 96.11 308.71 95.4 309.64 95.77 310.76 94.66 310.37 93.72 311.07 93.74 309.9 92.79 309.21"/><polygon class="cls-59" points="24.78 398.25 27.06 397.55 27.78 395.29 29.15 397.24 31.53 397.22 30.09 399.12 30.84 401.38 28.59 400.6 26.67 402.02 26.72 399.63 24.78 398.25"/><polygon class="cls-59" points="84.11 254.28 83.91 255.44 84.75 256.26 83.59 256.42 83.06 257.47 82.55 256.42 81.39 256.24 82.23 255.43 82.04 254.27 83.07 254.82 84.11 254.28"/><polygon class="cls-59" points="79.4 2.75 79.2 3.9 80.03 4.72 78.87 4.89 78.35 5.94 77.83 4.88 76.67 4.71 77.52 3.89 77.32 2.74 78.36 3.29 79.4 2.75"/><polygon class="cls-59" points="203.99 36.53 203.58 38.87 205.28 40.54 202.92 40.87 201.86 43 200.81 40.86 198.46 40.51 200.17 38.86 199.78 36.51 201.88 37.62 203.99 36.53"/><polygon class="cls-59" points="204.36 297.01 204.58 297.55 205.15 297.68 204.7 298.06 204.75 298.64 204.25 298.33 203.71 298.56 203.86 297.99 203.47 297.55 204.06 297.51 204.36 297.01"/><polygon class="cls-59" points="4.05 118.4 4.49 119.5 5.65 119.77 4.73 120.53 4.84 121.71 3.83 121.08 2.74 121.55 3.03 120.39 2.25 119.5 3.44 119.42 4.05 118.4"/><polygon class="cls-59" points="8.98 350.31 8.39 350.26 8.02 350.71 7.89 350.14 7.34 349.92 7.85 349.62 7.89 349.03 8.33 349.42 8.9 349.28 8.67 349.82 8.98 350.31"/><polygon class="cls-59" points="268.76 65.42 268.18 65.36 267.8 65.81 267.67 65.24 267.13 65.02 267.63 64.72 267.67 64.14 268.11 64.52 268.68 64.38 268.45 64.92 268.76 65.42"/><polygon class="cls-59" points="211.66 273.25 210.47 273.14 209.71 274.06 209.45 272.9 208.34 272.46 209.36 271.85 209.44 270.66 210.34 271.44 211.49 271.15 211.02 272.24 211.66 273.25"/><polygon class="cls-59" points="292.1 264.65 292.05 264.07 291.53 263.78 292.07 263.55 292.18 262.97 292.57 263.41 293.15 263.34 292.86 263.85 293.1 264.38 292.53 264.25 292.1 264.65"/><polygon class="cls-59" points="152.16 576.82 152.1 576.24 151.59 575.95 152.13 575.72 152.24 575.14 152.63 575.58 153.21 575.51 152.91 576.01 153.16 576.55 152.59 576.42 152.16 576.82"/><polygon class="cls-59" points="121.4 517.56 121.29 516.37 120.25 515.79 121.34 515.32 121.56 514.15 122.35 515.04 123.54 514.9 122.93 515.92 123.44 517 122.27 516.74 121.4 517.56"/><polygon class="cls-59" points="130.46 522.43 131.01 522.64 131.49 522.32 131.46 522.9 131.92 523.26 131.36 523.41 131.16 523.96 130.84 523.47 130.25 523.45 130.63 522.99 130.46 522.43"/><polygon class="cls-59" points="78.45 440.02 79.56 440.46 80.55 439.79 80.48 440.98 81.42 441.71 80.26 442.01 79.86 443.13 79.22 442.13 78.03 442.09 78.78 441.17 78.45 440.02"/><polygon class="cls-59" points="224.54 11.91 223.95 11.97 223.67 12.48 223.43 11.95 222.86 11.84 223.29 11.45 223.22 10.87 223.72 11.16 224.25 10.91 224.13 11.48 224.54 11.91"/><polygon class="cls-59" points="14.23 60.73 13.04 60.86 12.47 61.9 11.99 60.82 10.82 60.6 11.7 59.8 11.55 58.62 12.58 59.22 13.65 58.7 13.41 59.87 14.23 60.73"/><polygon class="cls-59" points="-1.16 19.28 -.95 18.73 -1.28 18.25 -.7 18.28 -.34 17.81 -.19 18.38 .36 18.57 -.13 18.89 -.14 19.48 -.6 19.11 -1.16 19.28"/><polygon class="cls-59" points="129.39 294.7 129.6 294.15 129.27 293.67 129.85 293.7 130.21 293.23 130.36 293.8 130.92 293.99 130.43 294.31 130.41 294.9 129.96 294.53 129.39 294.7"/><polygon class="cls-59" points="145.03 365.64 145.45 364.52 144.78 363.55 145.96 363.6 146.69 362.66 147 363.81 148.12 364.2 147.13 364.85 147.1 366.04 146.17 365.3 145.03 365.64"/><polygon class="cls-59" points="134 191.12 134.55 190.92 134.7 190.35 135.06 190.81 135.65 190.78 135.32 191.26 135.53 191.81 134.97 191.65 134.51 192.02 134.49 191.43 134 191.12"/><polygon class="cls-59" points="156.18 428.31 156.73 428.11 156.88 427.54 157.24 428 157.83 427.97 157.5 428.45 157.71 429 157.15 428.84 156.7 429.21 156.68 428.62 156.18 428.31"/><polygon class="cls-59" points="281.96 159.14 283.08 158.74 283.38 157.59 284.11 158.53 285.3 158.46 284.63 159.44 285.06 160.55 283.92 160.22 283 160.97 282.96 159.78 281.96 159.14"/><polygon class="cls-59" points="294.47 194.63 294.39 195.21 294.83 195.6 294.26 195.72 294.02 196.25 293.74 195.74 293.15 195.68 293.55 195.25 293.43 194.68 293.96 194.93 294.47 194.63"/><polygon class="cls-59" points="139.21 13.29 139.14 13.87 139.58 14.26 139 14.37 138.77 14.91 138.49 14.4 137.9 14.34 138.3 13.91 138.18 13.34 138.71 13.59 139.21 13.29"/><polygon class="cls-59" points="301.33 19.62 301.18 20.8 302.07 21.59 300.91 21.82 300.43 22.91 299.85 21.87 298.67 21.76 299.48 20.89 299.22 19.72 300.3 20.23 301.33 19.62"/></g><g><polygon class="cls-59" points="472.73 512.1 473.79 512.61 474.81 512.02 474.65 513.19 475.52 513.97 474.37 514.19 473.89 515.26 473.33 514.23 472.16 514.1 472.97 513.25 472.73 512.1"/><polygon class="cls-59" points="169.12 546 170.18 546.51 171.2 545.92 171.04 547.09 171.92 547.87 170.76 548.09 170.28 549.16 169.72 548.12 168.56 548 169.37 547.15 169.12 546"/><polygon class="cls-59" points="262.51 398.57 264.66 399.6 266.72 398.42 266.41 400.78 268.17 402.37 265.83 402.8 264.86 404.98 263.73 402.88 261.36 402.63 263 400.9 262.51 398.57"/><polygon class="cls-59" points="203.07 501.62 202.14 502.34 202.2 503.51 201.24 502.84 200.14 503.27 200.47 502.14 199.74 501.23 200.91 501.2 201.55 500.21 201.94 501.32 203.07 501.62"/><polygon class="cls-59" points="313.97 241.8 313.04 242.52 313.1 243.69 312.13 243.03 311.04 243.45 311.37 242.32 310.63 241.41 311.8 241.38 312.44 240.39 312.83 241.5 313.97 241.8"/><polygon class="cls-59" points="320.36 352.92 318.47 354.38 318.6 356.75 316.63 355.41 314.41 356.26 315.09 353.98 313.59 352.13 315.97 352.06 317.26 350.06 318.06 352.31 320.36 352.92"/><polygon class="cls-59" points="177.39 313.48 176.96 312.39 175.81 312.13 176.72 311.38 176.61 310.21 177.6 310.84 178.68 310.38 178.39 311.51 179.16 312.4 177.99 312.47 177.39 313.48"/><polygon class="cls-59" points="454.75 413.63 454.32 412.54 453.18 412.28 454.08 411.53 453.97 410.36 454.96 410.99 456.04 410.53 455.75 411.66 456.53 412.55 455.36 412.62 454.75 413.63"/><polygon class="cls-59" points="284.49 456.24 283.61 454.03 281.29 453.5 283.12 451.98 282.91 449.61 284.92 450.88 287.11 449.94 286.52 452.25 288.09 454.04 285.71 454.2 284.49 456.24"/><polygon class="cls-59" points="342.03 360.72 343.2 360.83 343.95 359.92 344.21 361.07 345.3 361.5 344.29 362.1 344.22 363.27 343.33 362.5 342.2 362.79 342.66 361.71 342.03 360.72"/><polygon class="cls-59" points="181.54 467.34 182.71 467.44 183.46 466.54 183.72 467.68 184.81 468.12 183.8 468.72 183.73 469.89 182.84 469.12 181.71 469.41 182.17 468.33 181.54 467.34"/><polygon class="cls-59" points="396.59 353.17 398.96 353.39 400.49 351.55 401.01 353.88 403.23 354.76 401.18 355.98 401.03 358.35 399.23 356.79 396.93 357.37 397.86 355.19 396.59 353.17"/><polygon class="cls-59" points="400.57 220.8 401.72 221.03 402.56 220.21 402.7 221.37 403.74 221.92 402.68 222.41 402.48 223.57 401.68 222.71 400.52 222.88 401.09 221.86 400.57 220.8"/><polygon class="cls-59" points="342.44 399.2 343.59 399.42 344.43 398.6 344.57 399.76 345.61 400.31 344.54 400.8 344.35 401.96 343.55 401.1 342.39 401.27 342.96 400.25 342.44 399.2"/><polygon class="cls-59" points="458.76 255.79 461.1 256.25 462.8 254.58 463.09 256.95 465.2 258.05 463.04 259.06 462.64 261.4 461.02 259.66 458.67 260.01 459.82 257.93 458.76 255.79"/><polygon class="cls-59" points="457.07 325.14 456.35 326.06 456.71 327.18 455.6 326.78 454.65 327.46 454.69 326.29 453.74 325.59 454.87 325.27 455.24 324.16 455.9 325.13 457.07 325.14"/><polygon class="cls-59" points="449.19 11.5 448.47 12.43 448.83 13.55 447.72 13.15 446.77 13.83 446.81 12.66 445.86 11.96 446.99 11.63 447.36 10.52 448.02 11.49 449.19 11.5"/><polygon class="cls-59" points="460.67 117.77 459.2 119.65 459.92 121.92 457.68 121.11 455.74 122.49 455.82 120.11 453.91 118.7 456.2 118.04 456.95 115.78 458.29 117.75 460.67 117.77"/><polygon class="cls-59" points="207.56 372.68 206.43 373.02 206.08 374.14 205.41 373.18 204.23 373.19 204.94 372.25 204.57 371.14 205.68 371.52 206.62 370.83 206.6 372 207.56 372.68"/><polygon class="cls-59" points="384.29 272.57 383.16 272.92 382.81 274.03 382.14 273.07 380.96 273.08 381.67 272.14 381.3 271.03 382.41 271.41 383.36 270.72 383.33 271.89 384.29 272.57"/><polygon class="cls-59" points="452.29 183.54 450.01 184.23 449.29 186.5 447.93 184.55 445.55 184.56 446.98 182.66 446.24 180.4 448.49 181.18 450.4 179.77 450.36 182.15 452.29 183.54"/><polygon class="cls-59" points="392.96 327.5 393.16 326.35 392.33 325.53 393.49 325.36 394.01 324.31 394.53 325.37 395.69 325.54 394.84 326.36 395.04 327.51 394 326.96 392.96 327.5"/><polygon class="cls-59" points="361.27 518.64 361.47 517.48 360.64 516.66 361.8 516.49 362.32 515.44 362.84 516.5 364 516.67 363.15 517.49 363.35 518.64 362.31 518.09 361.27 518.64"/><polygon class="cls-59" points="273.08 545.26 273.49 542.92 271.8 541.25 274.15 540.91 275.22 538.78 276.26 540.92 278.62 541.28 276.9 542.93 277.3 545.28 275.19 544.16 273.08 545.26"/><polygon class="cls-59" points="272.72 284.78 272.5 284.23 271.93 284.1 272.38 283.73 272.33 283.14 272.82 283.46 273.36 283.23 273.22 283.79 273.6 284.24 273.02 284.27 272.72 284.78"/><polygon class="cls-59" points="473.03 463.39 472.59 462.28 471.43 462.02 472.34 461.26 472.24 460.07 473.24 460.71 474.34 460.24 474.04 461.39 474.83 462.29 473.64 462.37 473.03 463.39"/><polygon class="cls-59" points="468.1 231.47 468.68 231.53 469.06 231.08 469.19 231.65 469.73 231.87 469.23 232.17 469.19 232.75 468.75 232.37 468.18 232.51 468.41 231.97 468.1 231.47"/><polygon class="cls-59" points="208.32 516.37 208.9 516.42 209.27 515.97 209.4 516.54 209.95 516.76 209.45 517.06 209.41 517.65 208.97 517.26 208.4 517.41 208.63 516.87 208.32 516.37"/><polygon class="cls-59" points="265.42 308.54 266.6 308.64 267.36 307.73 267.63 308.89 268.73 309.33 267.71 309.94 267.63 311.13 266.74 310.34 265.58 310.64 266.05 309.54 265.42 308.54"/><polygon class="cls-59" points="184.97 317.13 185.03 317.72 185.54 318 185.01 318.24 184.89 318.81 184.5 318.37 183.92 318.45 184.22 317.94 183.97 317.41 184.54 317.53 184.97 317.13"/><polygon class="cls-59" points="324.91 4.97 324.97 5.55 325.48 5.83 324.95 6.07 324.83 6.64 324.45 6.21 323.86 6.28 324.16 5.77 323.91 5.24 324.49 5.37 324.91 4.97"/><polygon class="cls-59" points="355.67 64.23 355.79 65.42 356.83 65.99 355.74 66.47 355.51 67.64 354.72 66.75 353.54 66.89 354.14 65.86 353.64 64.79 354.8 65.04 355.67 64.23"/><polygon class="cls-59" points="346.61 59.35 346.07 59.14 345.58 59.47 345.61 58.88 345.15 58.52 345.72 58.38 345.92 57.82 346.23 58.32 346.82 58.34 346.45 58.79 346.61 59.35"/><polygon class="cls-59" points="487.13 88.2 486.58 87.99 486.1 88.32 486.13 87.73 485.67 87.37 486.23 87.22 486.43 86.67 486.75 87.16 487.34 87.18 486.97 87.64 487.13 88.2"/><polygon class="cls-59" points="398.62 141.76 397.51 141.33 396.53 142 396.6 140.81 395.66 140.08 396.81 139.78 397.21 138.66 397.86 139.66 399.05 139.7 398.29 140.62 398.62 141.76"/><polygon class="cls-59" points="252.54 569.88 253.12 569.82 253.4 569.3 253.64 569.84 254.22 569.95 253.78 570.34 253.86 570.92 253.35 570.63 252.82 570.88 252.94 570.31 252.54 569.88"/><polygon class="cls-59" points="329.97 464.83 331.16 464.7 331.72 463.66 332.21 464.74 333.38 464.96 332.5 465.76 332.65 466.94 331.62 466.34 330.54 466.86 330.79 465.69 329.97 464.83"/><polygon class="cls-59" points="478.23 562.51 478.03 563.05 478.36 563.54 477.77 563.51 477.42 563.97 477.26 563.41 476.71 563.21 477.2 562.89 477.22 562.31 477.67 562.67 478.23 562.51"/><polygon class="cls-59" points="347.68 287.08 347.47 287.63 347.81 288.12 347.22 288.09 346.86 288.55 346.71 287.99 346.16 287.79 346.65 287.47 346.66 286.88 347.12 287.25 347.68 287.08"/><polygon class="cls-59" points="332.05 216.15 331.62 217.26 332.3 218.24 331.11 218.18 330.39 219.13 330.08 217.98 328.95 217.58 329.95 216.93 329.98 215.74 330.91 216.49 332.05 216.15"/><polygon class="cls-59" points="343.07 390.67 342.52 390.87 342.37 391.44 342.01 390.97 341.43 391.01 341.76 390.52 341.54 389.98 342.11 390.14 342.56 389.77 342.58 390.35 343.07 390.67"/><polygon class="cls-59" points="320.89 153.48 320.34 153.68 320.19 154.25 319.83 153.78 319.25 153.82 319.57 153.33 319.36 152.79 319.92 152.95 320.38 152.58 320.4 153.16 320.89 153.48"/><polygon class="cls-59" points="195.12 422.64 194 423.05 193.7 424.2 192.97 423.26 191.78 423.33 192.45 422.34 192.01 421.24 193.16 421.57 194.08 420.81 194.12 422 195.12 422.64"/><polygon class="cls-59" points="182.61 387.15 182.68 386.57 182.24 386.18 182.82 386.07 183.05 385.53 183.34 386.05 183.92 386.1 183.52 386.53 183.65 387.1 183.12 386.86 182.61 387.15"/><polygon class="cls-59" points="337.86 568.5 337.93 567.92 337.49 567.53 338.07 567.41 338.3 566.88 338.59 567.39 339.17 567.45 338.77 567.88 338.9 568.45 338.37 568.2 337.86 568.5"/><polygon class="cls-59" points="175.75 562.16 175.89 560.98 175 560.19 176.17 559.96 176.64 558.87 177.22 559.91 178.41 560.03 177.59 560.9 177.85 562.06 176.77 561.56 175.75 562.16"/></g><g><polygon class="cls-59" points="498.77 69.68 497.71 69.18 496.69 69.76 496.85 68.6 495.98 67.81 497.13 67.6 497.61 66.53 498.17 67.56 499.34 67.69 498.53 68.54 498.77 69.68"/><polygon class="cls-59" points="802.38 35.78 801.32 35.28 800.3 35.86 800.46 34.7 799.59 33.91 800.74 33.7 801.22 32.63 801.78 33.66 802.94 33.79 802.14 34.64 802.38 35.78"/><polygon class="cls-59" points="708.99 183.21 706.84 182.18 704.78 183.37 705.09 181.01 703.33 179.41 705.67 178.98 706.64 176.81 707.78 178.9 710.14 179.16 708.5 180.88 708.99 183.21"/><polygon class="cls-59" points="768.43 80.16 769.36 79.45 769.3 78.28 770.26 78.94 771.36 78.52 771.03 79.65 771.77 80.56 770.59 80.59 769.95 81.57 769.56 80.47 768.43 80.16"/><polygon class="cls-59" points="657.53 339.98 658.46 339.27 658.4 338.1 659.37 338.76 660.47 338.34 660.13 339.46 660.87 340.37 659.7 340.41 659.06 341.39 658.67 340.29 657.53 339.98"/><polygon class="cls-59" points="651.14 228.86 653.03 227.41 652.9 225.03 654.87 226.38 657.09 225.52 656.42 227.81 657.92 229.66 655.53 229.72 654.24 231.72 653.44 229.48 651.14 228.86"/><polygon class="cls-59" points="794.11 268.31 794.54 269.4 795.69 269.66 794.79 270.41 794.89 271.58 793.9 270.95 792.82 271.41 793.11 270.27 792.34 269.39 793.51 269.31 794.11 268.31"/><polygon class="cls-59" points="516.75 168.15 517.18 169.24 518.33 169.51 517.42 170.25 517.53 171.42 516.54 170.8 515.46 171.26 515.75 170.12 514.98 169.24 516.15 169.16 516.75 168.15"/><polygon class="cls-59" points="687.01 125.54 687.89 127.76 690.21 128.29 688.38 129.81 688.59 132.18 686.58 130.91 684.39 131.84 684.98 129.54 683.41 127.74 685.79 127.59 687.01 125.54"/><polygon class="cls-59" points="629.47 221.07 628.3 220.96 627.55 221.86 627.29 220.72 626.2 220.28 627.21 219.68 627.29 218.51 628.17 219.29 629.31 219 628.84 220.07 629.47 221.07"/><polygon class="cls-59" points="789.96 114.45 788.79 114.34 788.04 115.25 787.78 114.1 786.69 113.67 787.7 113.07 787.78 111.9 788.66 112.67 789.8 112.38 789.33 113.46 789.96 114.45"/><polygon class="cls-59" points="574.91 228.61 572.54 228.4 571.02 230.23 570.49 227.91 568.27 227.03 570.32 225.81 570.47 223.43 572.27 225 574.57 224.41 573.64 226.6 574.91 228.61"/><polygon class="cls-59" points="570.93 360.98 569.78 360.76 568.94 361.58 568.8 360.41 567.76 359.87 568.83 359.37 569.02 358.22 569.82 359.08 570.98 358.9 570.41 359.93 570.93 360.98"/><polygon class="cls-59" points="629.07 182.59 627.91 182.37 627.08 183.19 626.93 182.02 625.89 181.48 626.96 180.98 627.15 179.83 627.95 180.69 629.11 180.51 628.54 181.54 629.07 182.59"/><polygon class="cls-59" points="512.74 325.99 510.4 325.54 508.7 327.2 508.41 324.84 506.3 323.73 508.46 322.73 508.86 320.38 510.48 322.13 512.84 321.78 511.68 323.86 512.74 325.99"/><polygon class="cls-59" points="514.43 256.65 515.15 255.72 514.8 254.6 515.9 255 516.85 254.32 516.81 255.5 517.76 256.19 516.63 256.52 516.26 257.63 515.6 256.66 514.43 256.65"/><polygon class="cls-59" points="522.31 570.28 523.03 569.36 522.68 568.24 523.78 568.64 524.73 567.96 524.69 569.13 525.64 569.83 524.51 570.15 524.14 571.26 523.48 570.29 522.31 570.28"/><polygon class="cls-59" points="510.83 464.01 512.3 462.14 511.58 459.87 513.82 460.68 515.76 459.29 515.68 461.67 517.59 463.09 515.3 463.75 514.55 466.01 513.22 464.03 510.83 464.01"/><polygon class="cls-59" points="401.35 461.59 402.81 459.71 402.1 457.44 404.34 458.25 406.27 456.87 406.19 459.25 408.11 460.66 405.82 461.32 405.07 463.58 403.73 461.61 401.35 461.59"/><polygon class="cls-59" points="763.95 209.1 765.07 208.76 765.42 207.64 766.1 208.61 767.27 208.6 766.56 209.53 766.93 210.65 765.82 210.26 764.88 210.96 764.9 209.79 763.95 209.1"/><polygon class="cls-59" points="587.21 309.21 588.34 308.87 588.69 307.75 589.36 308.71 590.54 308.71 589.83 309.64 590.2 310.76 589.09 310.37 588.15 311.07 588.17 309.9 587.21 309.21"/><polygon class="cls-59" points="519.21 398.25 521.49 397.55 522.21 395.29 523.57 397.24 525.95 397.22 524.52 399.12 525.27 401.38 523.02 400.6 521.1 402.02 521.14 399.63 519.21 398.25"/><polygon class="cls-59" points="578.54 254.28 578.34 255.44 579.17 256.26 578.01 256.42 577.49 257.47 576.97 256.42 575.81 256.24 576.66 255.43 576.46 254.27 577.5 254.82 578.54 254.28"/><polygon class="cls-59" points="573.83 2.75 573.62 3.9 574.46 4.72 573.3 4.89 572.77 5.94 572.26 4.88 571.1 4.71 571.94 3.89 571.75 2.74 572.79 3.29 573.83 2.75"/><polygon class="cls-59" points="698.42 36.53 698.01 38.87 699.71 40.54 697.35 40.87 696.28 43 695.24 40.86 692.88 40.51 694.6 38.86 694.2 36.51 696.31 37.62 698.42 36.53"/><polygon class="cls-59" points="698.79 297.01 699 297.55 699.57 297.68 699.12 298.06 699.18 298.64 698.68 298.33 698.14 298.56 698.29 297.99 697.9 297.55 698.49 297.51 698.79 297.01"/><polygon class="cls-59" points="498.47 118.4 498.91 119.5 500.07 119.77 499.16 120.53 499.26 121.71 498.26 121.08 497.16 121.55 497.46 120.39 496.67 119.5 497.86 119.42 498.47 118.4"/><polygon class="cls-59" points="503.41 350.31 502.82 350.26 502.45 350.71 502.32 350.14 501.77 349.92 502.27 349.62 502.31 349.03 502.75 349.42 503.32 349.28 503.09 349.82 503.41 350.31"/><polygon class="cls-59" points="763.19 65.42 762.6 65.36 762.23 65.81 762.1 65.24 761.55 65.02 762.06 64.72 762.09 64.14 762.54 64.52 763.1 64.38 762.87 64.92 763.19 65.42"/><polygon class="cls-59" points="706.08 273.25 704.9 273.14 704.14 274.06 703.87 272.9 702.77 272.46 703.79 271.85 703.87 270.66 704.76 271.44 705.92 271.15 705.45 272.24 706.08 273.25"/><polygon class="cls-59" points="786.53 264.65 786.47 264.07 785.96 263.78 786.5 263.55 786.61 262.97 787 263.41 787.58 263.34 787.28 263.85 787.53 264.38 786.96 264.25 786.53 264.65"/><polygon class="cls-59" points="646.59 576.82 646.53 576.24 646.02 575.95 646.56 575.72 646.67 575.14 647.06 575.58 647.64 575.51 647.34 576.01 647.59 576.55 647.02 576.42 646.59 576.82"/><polygon class="cls-59" points="615.83 517.56 615.71 516.37 614.67 515.79 615.76 515.32 615.99 514.15 616.78 515.04 617.96 514.9 617.36 515.92 617.86 517 616.7 516.74 615.83 517.56"/><polygon class="cls-59" points="624.89 522.43 625.44 522.64 625.92 522.32 625.89 522.9 626.35 523.26 625.78 523.41 625.58 523.96 625.27 523.47 624.68 523.45 625.05 522.99 624.89 522.43"/><polygon class="cls-59" points="484.37 493.58 484.92 493.8 485.41 493.47 485.37 494.05 485.83 494.41 485.27 494.56 485.07 495.11 484.75 494.62 484.16 494.6 484.54 494.15 484.37 493.58"/><polygon class="cls-59" points="572.88 440.02 573.99 440.46 574.97 439.79 574.9 440.98 575.84 441.71 574.69 442.01 574.29 443.13 573.64 442.13 572.45 442.09 573.21 441.17 572.88 440.02"/><polygon class="cls-59" points="718.96 11.91 718.38 11.97 718.1 12.48 717.86 11.95 717.28 11.84 717.72 11.45 717.64 10.87 718.15 11.16 718.68 10.91 718.56 11.48 718.96 11.91"/><polygon class="cls-59" points="508.65 60.73 507.47 60.86 506.9 61.9 506.42 60.82 505.25 60.6 506.13 59.8 505.97 58.62 507.01 59.22 508.08 58.7 507.83 59.87 508.65 60.73"/><polygon class="cls-59" points="493.27 19.28 493.48 18.73 493.14 18.25 493.73 18.28 494.08 17.81 494.24 18.38 494.79 18.57 494.3 18.89 494.29 19.48 493.83 19.11 493.27 19.28"/><polygon class="cls-59" points="623.82 294.7 624.03 294.15 623.7 293.67 624.28 293.7 624.64 293.23 624.79 293.8 625.34 293.99 624.85 294.31 624.84 294.9 624.38 294.53 623.82 294.7"/><polygon class="cls-59" points="639.46 365.64 639.88 364.52 639.2 363.55 640.39 363.6 641.11 362.66 641.43 363.81 642.55 364.2 641.55 364.85 641.52 366.04 640.6 365.3 639.46 365.64"/><polygon class="cls-59" points="628.43 191.12 628.98 190.92 629.13 190.35 629.49 190.81 630.07 190.78 629.74 191.26 629.96 191.81 629.39 191.65 628.94 192.02 628.92 191.43 628.43 191.12"/><polygon class="cls-59" points="650.61 428.31 651.16 428.11 651.31 427.54 651.67 428 652.26 427.97 651.93 428.45 652.14 429 651.58 428.84 651.12 429.21 651.1 428.62 650.61 428.31"/><polygon class="cls-59" points="776.38 159.14 777.5 158.74 777.8 157.59 778.53 158.53 779.72 158.46 779.06 159.44 779.49 160.55 778.35 160.22 777.42 160.97 777.39 159.78 776.38 159.14"/><polygon class="cls-59" points="788.89 194.63 788.82 195.21 789.26 195.6 788.68 195.72 788.45 196.25 788.17 195.74 787.58 195.68 787.98 195.25 787.85 194.68 788.39 194.93 788.89 194.63"/><polygon class="cls-59" points="633.64 13.29 633.57 13.87 634.01 14.26 633.43 14.37 633.2 14.91 632.91 14.4 632.33 14.34 632.73 13.91 632.6 13.34 633.13 13.59 633.64 13.29"/><polygon class="cls-59" points="795.75 19.62 795.61 20.8 796.5 21.59 795.33 21.82 794.86 22.91 794.28 21.87 793.09 21.76 793.91 20.89 793.65 19.72 794.73 20.23 795.75 19.62"/></g><g><polygon class="cls-59" points="1013.12 509.87 1014.18 510.38 1015.2 509.79 1015.04 510.96 1015.91 511.74 1014.76 511.96 1014.28 513.03 1013.72 512 1012.55 511.87 1013.36 511.02 1013.12 509.87"/><polygon class="cls-59" points="709.51 543.77 710.57 544.28 711.59 543.69 711.43 544.86 712.3 545.64 711.15 545.86 710.67 546.93 710.11 545.9 708.95 545.77 709.76 544.92 709.51 543.77"/><polygon class="cls-59" points="802.9 396.34 805.05 397.37 807.11 396.19 806.8 398.55 808.56 400.14 806.22 400.57 805.25 402.75 804.12 400.65 801.75 400.4 803.39 398.67 802.9 396.34"/><polygon class="cls-59" points="647.73 512.87 646.8 513.59 646.86 514.76 645.9 514.1 644.8 514.52 645.13 513.39 644.39 512.48 645.57 512.45 646.21 511.47 646.6 512.57 647.73 512.87"/><polygon class="cls-59" points="854.36 239.57 853.43 240.29 853.49 241.46 852.52 240.8 851.43 241.22 851.76 240.09 851.02 239.18 852.19 239.15 852.83 238.17 853.22 239.27 854.36 239.57"/><polygon class="cls-59" points="860.75 350.69 858.86 352.15 858.99 354.52 857.02 353.18 854.8 354.03 855.48 351.75 853.98 349.9 856.36 349.83 857.65 347.84 858.45 350.08 860.75 350.69"/><polygon class="cls-59" points="717.78 311.25 717.35 310.16 716.2 309.9 717.11 309.15 717 307.98 717.99 308.61 719.07 308.15 718.78 309.28 719.55 310.17 718.38 310.24 717.78 311.25"/><polygon class="cls-59" points="995.14 411.4 994.71 410.31 993.57 410.05 994.47 409.3 994.36 408.13 995.35 408.76 996.43 408.3 996.14 409.44 996.92 410.32 995.75 410.39 995.14 411.4"/><polygon class="cls-59" points="845.38 474.24 844.49 472.02 842.17 471.5 844.01 469.97 843.79 467.6 845.8 468.87 847.99 467.94 847.41 470.25 848.97 472.04 846.6 472.19 845.38 474.24"/><polygon class="cls-59" points="882.42 358.49 883.59 358.6 884.34 357.69 884.6 358.84 885.69 359.27 884.68 359.87 884.61 361.04 883.72 360.27 882.59 360.56 883.05 359.48 882.42 358.49"/><polygon class="cls-59" points="721.93 465.11 723.1 465.21 723.85 464.31 724.11 465.45 725.2 465.89 724.19 466.49 724.12 467.66 723.23 466.89 722.1 467.18 722.56 466.1 721.93 465.11"/><polygon class="cls-59" points="936.98 350.94 939.35 351.16 940.88 349.33 941.4 351.65 943.62 352.53 941.57 353.75 941.42 356.13 939.62 354.56 937.32 355.15 938.25 352.96 936.98 350.94"/><polygon class="cls-59" points="940.96 218.58 942.11 218.8 942.95 217.98 943.09 219.14 944.13 219.69 943.07 220.18 942.87 221.34 942.07 220.48 940.91 220.65 941.48 219.63 940.96 218.58"/><polygon class="cls-59" points="882.83 396.97 883.98 397.19 884.82 396.37 884.96 397.54 886 398.08 884.93 398.57 884.74 399.73 883.94 398.87 882.78 399.04 883.35 398.02 882.83 396.97"/><polygon class="cls-59" points="999.15 253.56 1001.49 254.02 1003.19 252.36 1003.48 254.72 1005.59 255.82 1003.43 256.83 1003.03 259.17 1001.41 257.43 999.06 257.78 1000.21 255.7 999.15 253.56"/><polygon class="cls-59" points="997.46 322.91 996.74 323.83 997.1 324.95 995.99 324.55 995.04 325.23 995.08 324.06 994.13 323.36 995.26 323.04 995.63 321.93 996.29 322.9 997.46 322.91"/><polygon class="cls-59" points="989.58 9.27 988.86 10.2 989.22 11.32 988.11 10.92 987.16 11.6 987.2 10.43 986.25 9.73 987.38 9.4 987.75 8.29 988.41 9.26 989.58 9.27"/><polygon class="cls-59" points="1001.06 115.54 999.59 117.42 1000.31 119.69 998.07 118.88 996.13 120.26 996.21 117.88 994.3 116.47 996.59 115.81 997.34 113.55 998.68 115.52 1001.06 115.54"/><polygon class="cls-59" points="747.95 370.45 746.82 370.79 746.47 371.91 745.8 370.95 744.62 370.96 745.33 370.02 744.96 368.91 746.07 369.29 747.01 368.6 746.99 369.77 747.95 370.45"/><polygon class="cls-59" points="924.68 270.35 923.55 270.69 923.2 271.8 922.53 270.84 921.35 270.85 922.06 269.91 921.69 268.8 922.8 269.18 923.75 268.49 923.72 269.66 924.68 270.35"/><polygon class="cls-59" points="992.68 181.31 990.4 182 989.68 184.27 988.32 182.32 985.94 182.33 987.37 180.43 986.63 178.17 988.88 178.95 990.79 177.54 990.75 179.92 992.68 181.31"/><polygon class="cls-59" points="933.35 325.28 933.55 324.12 932.72 323.3 933.88 323.13 934.4 322.08 934.92 323.14 936.08 323.31 935.23 324.13 935.43 325.28 934.39 324.73 933.35 325.28"/><polygon class="cls-59" points="938.06 576.81 938.27 575.66 937.43 574.83 938.59 574.67 939.12 573.62 939.63 574.67 940.79 574.85 939.95 575.66 940.14 576.82 939.11 576.27 938.06 576.81"/><polygon class="cls-59" points="813.47 543.03 813.88 540.69 812.19 539.02 814.54 538.68 815.61 536.55 816.65 538.69 819.01 539.05 817.29 540.7 817.69 543.05 815.58 541.93 813.47 543.03"/><polygon class="cls-59" points="813.11 282.55 812.89 282 812.32 281.87 812.77 281.5 812.72 280.91 813.21 281.23 813.75 281 813.61 281.57 813.99 282.01 813.41 282.05 813.11 282.55"/><polygon class="cls-59" points="1013.42 461.16 1012.98 460.05 1011.82 459.79 1012.73 459.03 1012.63 457.84 1013.63 458.48 1014.73 458.01 1014.43 459.16 1015.22 460.06 1014.03 460.14 1013.42 461.16"/><polygon class="cls-59" points="1008.49 229.25 1009.07 229.3 1009.44 228.85 1009.58 229.42 1010.12 229.64 1009.62 229.94 1009.58 230.52 1009.14 230.14 1008.57 230.28 1008.8 229.74 1008.49 229.25"/><polygon class="cls-59" points="748.71 514.14 749.29 514.19 749.66 513.74 749.79 514.32 750.34 514.53 749.84 514.83 749.8 515.42 749.36 515.03 748.79 515.18 749.02 514.64 748.71 514.14"/><polygon class="cls-59" points="805.81 306.31 806.99 306.41 807.75 305.5 808.02 306.66 809.12 307.1 808.1 307.71 808.02 308.9 807.13 308.11 805.97 308.41 806.44 307.31 805.81 306.31"/><polygon class="cls-59" points="725.36 314.91 725.42 315.49 725.93 315.77 725.39 316.01 725.28 316.58 724.89 316.14 724.31 316.22 724.61 315.71 724.36 315.18 724.93 315.31 725.36 314.91"/><polygon class="cls-59" points="865.3 2.74 865.36 3.32 865.87 3.6 865.34 3.84 865.22 4.42 864.84 3.98 864.25 4.05 864.55 3.54 864.3 3.01 864.88 3.14 865.3 2.74"/><polygon class="cls-59" points="896.06 62 896.18 63.19 897.22 63.76 896.13 64.24 895.9 65.41 895.11 64.52 893.93 64.66 894.53 63.64 894.03 62.56 895.19 62.81 896.06 62"/><polygon class="cls-59" points="887 57.13 886.46 56.91 885.97 57.24 886 56.66 885.54 56.3 886.11 56.15 886.31 55.6 886.62 56.09 887.21 56.11 886.84 56.56 887 57.13"/><polygon class="cls-59" points="939.01 139.53 937.9 139.1 936.92 139.77 936.99 138.58 936.05 137.85 937.2 137.55 937.6 136.43 938.25 137.43 939.44 137.47 938.68 138.39 939.01 139.53"/><polygon class="cls-59" points="792.93 567.65 793.51 567.59 793.79 567.07 794.03 567.61 794.61 567.72 794.17 568.11 794.25 568.69 793.74 568.4 793.21 568.65 793.33 568.08 792.93 567.65"/><polygon class="cls-59" points="945.5 481.51 946.68 481.38 947.25 480.34 947.73 481.42 948.9 481.64 948.02 482.44 948.18 483.62 947.14 483.02 946.07 483.54 946.32 482.37 945.5 481.51"/><polygon class="cls-59" points="1018.62 560.28 1018.42 560.83 1018.75 561.31 1018.16 561.28 1017.81 561.75 1017.65 561.18 1017.1 560.98 1017.59 560.66 1017.61 560.08 1018.06 560.45 1018.62 560.28"/><polygon class="cls-59" points="888.07 284.86 887.86 285.4 888.2 285.89 887.61 285.86 887.25 286.32 887.1 285.76 886.55 285.56 887.04 285.24 887.05 284.66 887.51 285.02 888.07 284.86"/><polygon class="cls-59" points="872.44 213.92 872.01 215.03 872.69 216.01 871.5 215.95 870.78 216.9 870.47 215.75 869.34 215.36 870.34 214.7 870.37 213.51 871.29 214.26 872.44 213.92"/><polygon class="cls-59" points="883.46 388.44 882.91 388.64 882.76 389.21 882.4 388.74 881.82 388.78 882.15 388.29 881.93 387.75 882.5 387.91 882.95 387.54 882.97 388.12 883.46 388.44"/><polygon class="cls-59" points="861.28 151.25 860.73 151.45 860.58 152.02 860.22 151.55 859.64 151.59 859.96 151.1 859.75 150.56 860.31 150.72 860.77 150.35 860.79 150.93 861.28 151.25"/><polygon class="cls-59" points="735.51 420.41 734.39 420.82 734.09 421.97 733.36 421.03 732.17 421.1 732.84 420.12 732.4 419.01 733.55 419.34 734.47 418.58 734.51 419.77 735.51 420.41"/><polygon class="cls-59" points="723 384.92 723.07 384.34 722.63 383.95 723.21 383.84 723.44 383.3 723.73 383.82 724.31 383.87 723.91 384.3 724.04 384.87 723.51 384.63 723 384.92"/><polygon class="cls-59" points="878.25 566.27 878.32 565.69 877.88 565.3 878.46 565.19 878.69 564.65 878.98 565.16 879.56 565.22 879.16 565.65 879.29 566.22 878.76 565.97 878.25 566.27"/><polygon class="cls-59" points="716.14 559.93 716.28 558.75 715.39 557.96 716.56 557.74 717.03 556.64 717.61 557.68 718.8 557.8 717.98 558.67 718.24 559.83 717.16 559.33 716.14 559.93"/></g></g><circle class="cls-56" cx="924.41" cy="35.65" r="92.01"/><circle class="cls-57" cx="176.64" cy="135.15" r="74.7"/><circle class="cls-58" cx="829.96" cy="171.56" r="50.68"/><circle class="cls-55" cx="197.33" cy="529.94" r="50.68"/><g><g><path class="cls-1" d="m982.8-26.48c99.35,226.76,74.09,493.78-75.79,700.06"/><path class="cls-2" d="m958.32-22.97c99.13,220.42,75.61,481.39-70.56,682.58"/><path class="cls-10" d="m936.25-14.03c96.11,212.93,73.53,465.21-67.74,659.65"/><path class="cls-26" d="m910.04-14.03c97.82,207.27,77.56,455.24-60.78,645.66"/><path class="cls-11" d="m913.4,56.03c40.95-14.25,81.91-28.5,122.86-42.75"/><path class="cls-22" d="m921.23,80.12c38.23-11.56,76.47-23.11,114.7-34.67"/><path class="cls-48" d="m928.03,104.43c38.06-9.81,76.12-19.62,114.18-29.44"/><path class="cls-4" d="m933.81,128.95c37.49-8.04,74.98-16.08,112.47-24.12"/><path class="cls-51" d="m938.56,153.64c37.34-6.42,74.68-12.83,112.01-19.25"/><path class="cls-47" d="m942.3,178.47c36.16-4.7,72.32-9.4,108.49-14.1"/><path class="cls-25" d="m945.02,203.4c37.47-3.32,74.95-6.64,112.42-9.96"/><path class="cls-14" d="m946.72,228.4c37.68-1.79,75.35-3.58,113.03-5.37"/><path class="cls-42" d="m947.39,253.44c37.45-.25,74.9-.5,112.35-.74"/><path class="cls-52" d="m947.05,278.49c37.58,1.29,75.15,2.57,112.73,3.86"/><path class="cls-16" d="m945.68,303.51c37.24,2.8,74.47,5.6,111.71,8.41"/><path class="cls-17" d="m943.29,328.46c38.05,4.43,76.1,8.87,114.16,13.3"/><path class="cls-12" d="m939.89,353.33c39.15,6.2,78.3,12.39,117.45,18.59"/><path class="cls-8" d="m935.46,378.07c40.64,8.15,81.28,16.3,121.92,24.45"/><path class="cls-32" d="m930.01,402.64c42.44,10.34,84.89,20.68,127.33,31.02"/><path class="cls-24" d="m923.54,427.03c43.19,12.43,86.37,24.85,129.56,37.28"/><path class="cls-7" d="m916.05,451.19c45.18,15.04,90.36,30.09,135.54,45.13"/><path class="cls-41" d="m907.54,475.1c46.44,17.63,92.88,35.26,139.32,52.89"/><path class="cls-33" d="m898.01,498.71c48.28,20.66,96.55,41.32,144.83,61.97"/><path class="cls-36" d="m887.45,522.01c49.31,23.58,98.63,47.16,147.94,70.75"/><path class="cls-9" d="m875.88,544.94c48.93,25.97,97.86,51.94,146.79,77.91"/></g><g><path class="cls-40" d="m41.2-26.48C-58.14,200.28-32.88,467.3,116.99,673.59"/><path class="cls-3" d="m65.68-22.97C-33.45,197.45-9.93,458.42,136.24,659.6"/><path class="cls-15" d="m87.75-14.03C-8.36,198.9,14.22,451.18,155.49,645.62"/><path class="cls-20" d="m113.96-14.03C16.13,193.25,36.39,441.22,174.74,631.63"/><path class="cls-35" d="m110.6,56.03C69.64,41.78,28.69,27.54-12.27,13.29"/><path class="cls-30" d="m102.77,80.12c-38.23-11.56-76.47-23.11-114.7-34.67"/><path class="cls-34" d="m95.97,104.43c-38.06-9.81-76.12-19.62-114.18-29.44"/><path class="cls-46" d="m90.19,128.95c-37.49-8.04-74.98-16.08-112.47-24.12"/><path class="cls-37" d="m85.44,153.64c-37.34-6.42-74.68-12.83-112.01-19.25"/><path class="cls-31" d="m81.7,178.47c-36.16-4.7-72.32-9.4-108.49-14.1"/><path class="cls-5" d="m78.98,203.4c-37.47-3.32-74.95-6.64-112.42-9.96"/><path class="cls-27" d="m77.28,228.4c-37.68-1.79-75.35-3.58-113.03-5.37"/><path class="cls-23" d="m76.61,253.44c-37.45-.25-74.9-.5-112.35-.74"/><path class="cls-50" d="m76.95,278.49c-37.58,1.29-75.15,2.57-112.73,3.86"/><path class="cls-43" d="m78.32,303.51c-37.24,2.8-74.47,5.6-111.71,8.41"/><path class="cls-45" d="m80.71,328.46c-38.05,4.43-76.1,8.87-114.16,13.3"/><path class="cls-53" d="m84.11,353.33c-39.15,6.2-78.3,12.39-117.45,18.59"/><path class="cls-44" d="m88.54,378.07c-40.64,8.15-81.28,16.3-121.92,24.45"/><path class="cls-54" d="m93.99,402.64c-42.44,10.34-84.89,20.68-127.33,31.02"/><path class="cls-38" d="m100.46,427.03c-43.19,12.43-86.37,24.85-129.56,37.28"/><path class="cls-49" d="m107.95,451.19c-45.18,15.04-90.36,30.09-135.54,45.13"/><path class="cls-18" d="m116.46,475.1c-46.44,17.63-92.88,35.26-139.32,52.89"/><path class="cls-39" d="m125.99,498.71c-48.28,20.66-96.55,41.32-144.83,61.97"/><path class="cls-13" d="m136.55,522.01c-49.31,23.58-98.63,47.16-147.94,70.75"/><path class="cls-28" d="m148.12,544.94c-48.93,25.97-97.86,51.94-146.79,77.91"/></g></g><g><g><path class="cls-21" d="m982.8-679.33c99.35,226.76,74.09,493.78-75.79,700.06"/><path class="cls-6" d="m958.32-675.83c99.13,220.42,75.61,481.39-70.56,682.58"/></g><g><path class="cls-29" d="m41.2-679.33C-58.14-452.57-32.88-185.55,116.99,20.73"/><path class="cls-19" d="m65.68-675.83C-33.45-455.4-9.93-194.44,136.24,6.75"/></g></g></svg>