<?xml version="1.0" encoding="UTF-8"?><svg id="Layer_1" xmlns="http://www.w3.org/2000/svg" viewBox="0 0 505.4 63.98"><defs><style>.cls-1{fill:#008299;}</style></defs><path class="cls-1" d="m27.3,15.96c0-1.96-.76-3.66-2.27-5.11-1.52-1.45-3.65-2.17-6.4-2.17-2.33,0-4.18.48-5.53,1.43-1.35.96-2.03,2.25-2.03,3.88,0,.84.16,1.6.49,2.28.33.68.9,1.28,1.72,1.82.82.54,1.89,1.01,3.22,1.43s3.02.82,5.08,1.19c5.13.93,9.05,2.5,11.76,4.69,2.71,2.19,4.06,5.44,4.06,9.73v.84c0,2.29-.41,4.35-1.23,6.2-.82,1.84-1.99,3.42-3.53,4.72-1.54,1.31-3.41,2.31-5.6,3.01-2.19.7-4.67,1.05-7.42,1.05-3.22,0-6.06-.46-8.5-1.37-2.45-.91-4.49-2.17-6.12-3.78-1.63-1.61-2.87-3.5-3.71-5.67-.84-2.17-1.26-4.54-1.26-7.11v-2.1h9.24v1.68c0,2.94.85,5.29,2.56,7.04,1.7,1.75,4.35,2.62,7.94,2.62,2.8,0,4.88-.61,6.23-1.82,1.35-1.21,2.03-2.66,2.03-4.34,0-.79-.14-1.55-.42-2.27-.28-.72-.77-1.38-1.47-1.96-.7-.58-1.66-1.11-2.87-1.58-1.21-.47-2.75-.86-4.62-1.19-2.47-.42-4.74-.97-6.79-1.64-2.05-.68-3.84-1.58-5.35-2.7-1.52-1.12-2.7-2.52-3.54-4.2-.84-1.68-1.26-3.73-1.26-6.16v-.42c0-2.01.41-3.86,1.22-5.56.82-1.7,1.96-3.19,3.43-4.45s3.24-2.24,5.32-2.94c2.08-.7,4.4-1.05,6.97-1.05,2.89,0,5.46.41,7.7,1.23,2.24.82,4.12,1.92,5.64,3.33,1.52,1.4,2.66,3.01,3.43,4.83.77,1.82,1.16,3.73,1.16,5.74v2.52h-9.24v-1.68Z"/><path class="cls-1" d="m52.78,63.98h-8.82V15.26h8.82v5.04h1.26c.93-1.91,2.29-3.4,4.06-4.45,1.77-1.05,4.04-1.58,6.79-1.58,2.05,0,4,.4,5.85,1.19,1.84.79,3.45,1.95,4.83,3.46,1.38,1.52,2.47,3.37,3.29,5.56.82,2.19,1.22,4.69,1.22,7.49v1.26c0,2.85-.4,5.37-1.19,7.56-.79,2.19-1.87,4.05-3.22,5.56-1.35,1.52-2.95,2.66-4.79,3.43-1.84.77-3.84,1.16-5.99,1.16-1.59,0-2.96-.16-4.13-.49-1.17-.33-2.18-.77-3.04-1.33-.86-.56-1.59-1.2-2.17-1.92-.58-.72-1.08-1.48-1.5-2.28h-1.26v19.04Zm9.24-21.42c2.75,0,4.98-.85,6.68-2.55,1.7-1.7,2.56-4.03,2.56-6.97v-.84c0-2.94-.85-5.26-2.56-6.96-1.7-1.7-3.93-2.55-6.68-2.55s-4.98.88-6.69,2.62c-1.7,1.75-2.56,4.05-2.56,6.89v.84c0,2.85.85,5.15,2.56,6.9,1.7,1.75,3.93,2.62,6.69,2.62Z"/><path class="cls-1" d="m111.09,44.94c-.93,2.19-2.24,3.75-3.92,4.66-1.68.91-3.64,1.37-5.88,1.37-2.1,0-4.07-.4-5.92-1.19-1.84-.79-3.46-1.96-4.86-3.5s-2.51-3.41-3.33-5.6c-.82-2.19-1.23-4.69-1.23-7.49v-1.12c0-2.75.4-5.23,1.19-7.42.79-2.19,1.87-4.06,3.22-5.6,1.35-1.54,2.93-2.72,4.73-3.53,1.8-.82,3.72-1.23,5.77-1.23,2.47,0,4.47.42,5.98,1.26,1.52.84,2.72,2.15,3.6,3.92h1.26v-4.2h8.82v24.22c0,1.4.63,2.1,1.89,2.1h1.33v8.4h-6.02c-1.59,0-2.88-.47-3.89-1.4-1-.93-1.5-2.15-1.5-3.64h-1.26Zm-7.84-2.38c2.57,0,4.62-.85,6.16-2.55,1.54-1.7,2.31-4.03,2.31-6.97v-.84c0-2.94-.77-5.26-2.31-6.96-1.54-1.7-3.59-2.55-6.16-2.55s-4.62.85-6.16,2.55c-1.54,1.7-2.31,4.03-2.31,6.96v.84c0,2.94.77,5.26,2.31,6.97,1.54,1.7,3.59,2.55,6.16,2.55Z"/><path class="cls-1" d="m165.34,37.24c-.79,4.11-2.67,7.42-5.63,9.94-2.96,2.52-6.92,3.78-11.87,3.78-2.57,0-4.96-.4-7.17-1.19-2.22-.79-4.14-1.94-5.77-3.43-1.63-1.49-2.92-3.34-3.85-5.53-.93-2.19-1.4-4.69-1.4-7.49v-.84c0-2.8.47-5.32,1.4-7.56.93-2.24,2.23-4.15,3.88-5.74,1.66-1.59,3.59-2.8,5.81-3.64,2.22-.84,4.58-1.26,7.1-1.26,4.85,0,8.79,1.26,11.79,3.78,3.01,2.52,4.91,5.83,5.71,9.94l-8.68,2.24c-.28-2.05-1.17-3.83-2.66-5.32-1.49-1.49-3.59-2.24-6.3-2.24-1.26,0-2.45.23-3.57.7s-2.1,1.13-2.94,1.99c-.84.86-1.5,1.91-2,3.15-.49,1.24-.73,2.62-.73,4.17v.42c0,1.54.25,2.91.73,4.09.49,1.19,1.16,2.18,2,2.98.84.79,1.82,1.39,2.94,1.79s2.31.59,3.57.59c2.71,0,4.77-.68,6.19-2.03,1.42-1.35,2.35-3.17,2.77-5.46l8.68,2.17Z"/><path class="cls-1" d="m182.07,35.49c.05,1.03.29,1.97.73,2.83.44.86,1.05,1.61,1.82,2.24s1.66,1.12,2.66,1.47c1,.35,2.06.53,3.19.53,2.19,0,3.87-.38,5.04-1.16,1.17-.77,2.01-1.69,2.52-2.76l7.56,4.2c-.42.89-1,1.81-1.75,2.76-.75.96-1.71,1.83-2.9,2.62-1.19.79-2.64,1.45-4.34,1.96-1.7.51-3.7.77-5.98.77-2.61,0-4.99-.42-7.14-1.26-2.15-.84-4-2.05-5.56-3.64-1.56-1.59-2.78-3.52-3.64-5.81-.86-2.29-1.29-4.88-1.29-7.77v-.42c0-2.66.46-5.09,1.37-7.28.91-2.19,2.16-4.06,3.75-5.6,1.59-1.54,3.44-2.74,5.56-3.61,2.12-.86,4.4-1.29,6.82-1.29,2.99,0,5.55.53,7.7,1.58,2.15,1.05,3.92,2.38,5.32,3.99,1.4,1.61,2.43,3.38,3.08,5.32.65,1.94.98,3.82.98,5.64v4.69h-25.48Zm8.33-13.23c-2.24,0-4.06.57-5.46,1.71s-2.31,2.46-2.73,3.96h16.38c-.28-1.63-1.15-2.99-2.62-4.06-1.47-1.07-3.33-1.61-5.56-1.61Z"/><path class="cls-1" d="m256.2.98h9.52l9.59,44.38h1.26L286.16.98h9.52l-11.06,49h-17.36L256.2.98Z"/><path class="cls-1" d="m325.29,44.94c-.93,2.19-2.24,3.75-3.92,4.66-1.68.91-3.64,1.37-5.88,1.37-2.1,0-4.07-.4-5.92-1.19-1.84-.79-3.46-1.96-4.86-3.5s-2.51-3.41-3.33-5.6c-.82-2.19-1.23-4.69-1.23-7.49v-1.12c0-2.75.4-5.23,1.19-7.42.79-2.19,1.87-4.06,3.22-5.6,1.35-1.54,2.93-2.72,4.73-3.53,1.8-.82,3.72-1.23,5.77-1.23,2.47,0,4.47.42,5.98,1.26,1.52.84,2.72,2.15,3.6,3.92h1.26v-4.2h8.82v24.22c0,1.4.63,2.1,1.89,2.1h1.33v8.4h-6.02c-1.59,0-2.88-.47-3.89-1.4-1-.93-1.5-2.15-1.5-3.64h-1.26Zm-7.84-2.38c2.57,0,4.62-.85,6.16-2.55,1.54-1.7,2.31-4.03,2.31-6.97v-.84c0-2.94-.77-5.26-2.31-6.96-1.54-1.7-3.59-2.55-6.16-2.55s-4.62.85-6.16,2.55c-1.54,1.7-2.31,4.03-2.31,6.96v.84c0,2.94.77,5.26,2.31,6.97,1.54,1.7,3.59,2.55,6.16,2.55Z"/><path class="cls-1" d="m345.45,41.58h12.18V9.38h-11.76V.98h20.58v40.6h11.34v8.4h-32.34v-8.4Z"/><path class="cls-1" d="m412.02,15.26h8.82v34.72h-8.82v-5.04h-1.26c-1.54,4.01-4.85,6.02-9.94,6.02-1.73,0-3.34-.28-4.83-.84-1.49-.56-2.8-1.42-3.92-2.59-1.12-1.17-1.99-2.62-2.62-4.38-.63-1.75-.94-3.81-.94-6.19V15.26h8.82v19.88c0,2.47.58,4.4,1.75,5.77,1.17,1.38,2.92,2.07,5.25,2.07,2.66,0,4.61-.85,5.85-2.55,1.24-1.7,1.85-4.03,1.85-6.96V15.26Z"/><path class="cls-1" d="m439.11,35.49c.05,1.03.29,1.97.73,2.83.44.86,1.05,1.61,1.82,2.24s1.66,1.12,2.66,1.47c1,.35,2.06.53,3.19.53,2.19,0,3.87-.38,5.04-1.16,1.17-.77,2.01-1.69,2.52-2.76l7.56,4.2c-.42.89-1,1.81-1.75,2.76-.75.96-1.71,1.83-2.9,2.62-1.19.79-2.64,1.45-4.34,1.96-1.7.51-3.7.77-5.98.77-2.61,0-4.99-.42-7.14-1.26-2.15-.84-4-2.05-5.56-3.64-1.56-1.59-2.78-3.52-3.64-5.81-.86-2.29-1.29-4.88-1.29-7.77v-.42c0-2.66.46-5.09,1.37-7.28.91-2.19,2.16-4.06,3.75-5.6,1.59-1.54,3.44-2.74,5.56-3.61,2.12-.86,4.4-1.29,6.82-1.29,2.99,0,5.55.53,7.7,1.58,2.15,1.05,3.92,2.38,5.32,3.99,1.4,1.61,2.43,3.38,3.08,5.32.65,1.94.98,3.82.98,5.64v4.69h-25.48Zm8.33-13.23c-2.24,0-4.06.57-5.46,1.71s-2.31,2.46-2.73,3.96h16.38c-.28-1.63-1.15-2.99-2.62-4.06-1.47-1.07-3.33-1.61-5.56-1.61Z"/><path class="cls-1" d="m485.24,25.06c0,1.12.58,1.92,1.75,2.42,1.17.49,3.29.9,6.37,1.22,3.55.37,6.44,1.44,8.68,3.19,2.24,1.75,3.36,4.19,3.36,7.31v.42c0,3.45-1.26,6.21-3.78,8.26s-6.07,3.08-10.64,3.08c-2.71,0-5.02-.35-6.93-1.05-1.91-.7-3.5-1.57-4.76-2.62-1.26-1.05-2.23-2.22-2.9-3.5-.68-1.28-1.13-2.53-1.37-3.75l8.12-2.66c.37,1.49,1.16,2.8,2.35,3.92s3.02,1.68,5.49,1.68c2.19,0,3.7-.34,4.52-1.01.82-.68,1.23-1.41,1.23-2.21,0-.47-.1-.9-.31-1.29s-.6-.77-1.16-1.12c-.56-.35-1.32-.64-2.27-.88-.96-.23-2.16-.42-3.6-.56-3.92-.33-7.03-1.34-9.34-3.04-2.31-1.7-3.47-4.21-3.47-7.52v-.42c0-1.73.37-3.24,1.12-4.55.75-1.31,1.73-2.42,2.94-3.32,1.21-.91,2.61-1.6,4.2-2.07,1.59-.47,3.22-.7,4.9-.7,2.19,0,4.1.27,5.71.81s2.98,1.24,4.09,2.1c1.12.86,2.03,1.82,2.73,2.87.7,1.05,1.24,2.06,1.61,3.04l-7.98,3.22c-.42-1.26-1.14-2.25-2.17-2.97-1.03-.72-2.36-1.08-3.99-1.08-1.49,0-2.61.27-3.36.8-.75.54-1.12,1.2-1.12,2Z"/></svg>